<svg height="381.881308" viewBox="0 0 480 699.99999" width="261.861468" xmlns="http://www.w3.org/2000/svg" xmlns:xlink="http://www.w3.org/1999/xlink"><linearGradient id="a" gradientUnits="userSpaceOnUse" x1="189.71648" x2="192.63283" y1="347.04651" y2="11.66539"><stop offset="0" stop-color="#f9f9f9"/><stop offset=".19567521" stop-color="#96979b"/><stop offset=".44779226" stop-color="#5a5b5d"/><stop offset=".6215409"/><stop offset="1"/></linearGradient><g transform="matrix(1.25 0 0 -1.25 0 699.99995)"><path d="m185.30882 525.90557 13.39015-.0246v34.11902h85.95025v-34.2745l13.40052-.0194.003 32.0278v2.26614h85.94767v-443.00441l-1.07987-.6582-189.73631-115.62224887-1.1745-.71521287-1.1797.71521287-132.461213 80.71151387-57.2811575 34.906795-1.0837606.66209v1.27106l.00388909 228.04277-.00777818 211.42444v2.26614h85.95803419v-33.9156l13.38237-.0246v33.94022h85.968406v-34.09441z" fill-rule="evenodd"/><path d="m1.2873031 558.09404h83.2849309v-34.17862h17.648706v33.8547h80.52756v-34.63211h18.20096v35.40952h81.62947v-36.18692h18.20096v35.18147h81.62947v-438.80124l-190.17147-116.3166733-190.9505869 116.3166733z"/><g fill-rule="evenodd"><path d="m200.8075 521.36164-17.91705.0324-2.26734.005v34.06461h-76.89904v-33.92726l-2.26734.004-17.917052.0285-2.267342.005v33.88969h-76.9068177l.00907-435.92743 187.4841117-114.2433573 187.47244 114.2474873v435.92354h-76.91071v-34.28617l-2.25956.005-17.92094.0324-2.25827.004v34.2447h-76.91071v-31.84511l-.005-2.26096-2.25827.004z" fill="#fff"/><g fill="url(#a)" transform="translate(-.153242)"><path d="m18.142187 347.41714-.0031-220.17812 42.584376-25.95156 7.089062-4.318748v250.448428h-49.670313z"/><path d="m117.4875 347.41714v-280.71718l49.675-30.268752v310.985932z"/><path d="m216.83594 347.41714v-310.995308l49.67656 30.27344v280.721868z"/><path d="m316.1875 347.41714v-250.449996l49.67656 30.273436-.003 220.17656h-49.67344z"/></g><path d="m17.988253 393.5433h347.719937l.004 148.31727h-49.67798v-33.87414h-49.67539v33.87414h-49.67539v-33.87414h-49.67409v33.87414h-49.67539v-33.87414h-49.674089v33.87414h-49.675387l.0039-148.31727z" fill="#e32028"/><g fill="#fff" transform="translate(-1.654362)"><path d="m328.40671 432.02486v18.24182l-15.23358 21.08452h11.64395l8.40303-12.39572 8.42767 12.39572h11.61542l-15.23358-21.09359v-18.23275z"/><path d="m311.63564 471.36157v-7.21043h-13.98648v-32.11591h-9.6242v32.11591h-13.98648v7.21043z"/><path d="m258.23969 471.36157h9.6281v-39.32635h-9.6281z"/><path d="m250.25797 443.97099v-8.59033c-4.83544-2.61467-9.88996-3.91942-15.17524-3.91942-6.86036 0-12.31546 1.92926-16.38345 5.80204-4.0667 3.87407-6.09681 8.63956-6.09681 14.30814 0 5.67506 2.1416 10.47813 6.42608 14.43771 4.28449 3.95052 9.88219 5.92772 16.78792 5.92772 5.51344 0 10.17387-1.15315 13.98648-3.45686v-8.76784c-4.67988 2.69112-9.11474 4.03474-13.29422 4.03474-4.11725 0-7.47743-1.11817-10.08183-3.38172-2.61347-2.24411-3.91372-5.11792-3.91372-8.60976 0-3.5074 1.2834-6.39805 3.85928-8.68491 2.5668-2.2791 5.86864-3.42318 9.88996-3.42318 1.99251 0 3.90595.2708 5.74678.79943 1.85121.53771 4.59302 1.70641 8.24877 3.52424"/><path d="m189.85128 471.36157v-39.32634h-9.6268v15.97049h-19.19657v-15.97049h-9.62291v39.32634h9.62291v-15.74246h19.19657v15.74246z"/><path d="m145.50654 471.36157v-7.21043h-13.98648v-32.11591h-9.62809v32.11591h-13.98259v7.21043z"/><g transform="matrix(.8 0 0 -.8 0 559.99996)"><path d="m105.75 110.79883-19.394531 49.15625h12.74414l3.593751-9.73047h21.54102l3.9746 9.73047h12.93164l-21.37695-49.15625zm7.18359 11.75195 7.79297 19.09961h-14.86133z"/><path d="m42.177734 110.79883v49.15625h23.47461c5.588951 0 9.814142-1.33162 12.695312-4.01367 2.874688-2.66585 4.3125-6.13796 4.3125-10.40235 0-2.98977-.885715-5.61953-2.65039-7.86914-1.771159-2.24314-4.309258-3.81624-7.632813-4.70703 4.396296-2.28039 6.607422-5.55045 6.607422-9.82617 0-3.34284-1.418152-6.23633-4.263672-8.67383-2.839037-2.43586-6.744241-3.66406-11.710937-3.66406zm12.033204 9.01953h6.263671c1.921862 0 3.431497.48956 4.50586 1.47266 1.072741.98957 1.615234 2.24049 1.615234 3.74023 0 1.52404-.542493 2.78625-1.615234 3.79687-1.074363 1.00901-2.583998 1.51368-4.50586 1.51368h-6.263671zm0 19.5332h8.388671c2.228128 0 3.996443.49385 5.330079 1.48828 1.333634 1.0009 1.99414 2.35545 1.99414 4.0625 0 2.23343-.697914 3.79482-2.099609 4.69532-1.391971.90048-3.692758 1.35937-6.876953 1.35937h-6.736328z"/></g></g><g fill="#1b1918" transform="translate(-.609937)"><path d="m53.55801 364.83113c1.637308 0 2.9596.48717 3.960393 1.45763 1.004683.97047 1.499894 2.2493 1.499894 3.83261 0 1.58721-.495211 2.86474-1.499894 3.8352-1.000793.96399-2.323085 1.45116-3.960393 1.45116-1.650272 0-2.975156-.48717-3.983728-1.45116-1.000793-.97046-1.503783-2.24799-1.503783-3.8352 0-1.58331.50299-2.86214 1.503783-3.83261 1.008572-.97046 2.333456-1.45763 3.983728-1.45763m0 14.16692c2.951822 0 5.339725-.88754 7.168895-2.67039 1.825281-1.78285 2.737922-3.85334 2.737922-6.21536 0-2.3944-.924308-4.47396-2.775516-6.23608-1.851209-1.75694-4.230037-2.6367-7.131301-2.6367-2.938858 0-5.325465.87587-7.171488 2.62374-1.842134 1.75953-2.763849 3.83779-2.763849 6.24904 0 2.36979.912641 4.44547 2.746996 6.21925 1.829171 1.77896 4.226148 2.6665 7.188341 2.6665"/><path d="m86.204354 364.83113c1.642494 0 2.962193.48717 3.959097 1.45763 1.003386.97047 1.505079 2.2493 1.505079 3.83261 0 1.58721-.501693 2.86474-1.505079 3.8352-.996904.96399-2.316603 1.45116-3.959097 1.45116-1.646383 0-2.971267-.48717-3.981135-1.45116-1.003386-.97046-1.507672-2.24799-1.507672-3.8352 0-1.58331.504286-2.86214 1.507672-3.83261 1.009868-.97046 2.334752-1.45763 3.981135-1.45763m0 14.16692c2.950525 0 5.343614-.88754 7.172784-2.67039 1.825281-1.78285 2.737922-3.85334 2.737922-6.21536 0-2.3944-.924308-4.47396-2.780702-6.23608-1.849912-1.75694-4.22874-2.6367-7.130004-2.6367-2.933673 0-5.321576.87587-7.168895 2.62374-1.840838 1.75953-2.767738 3.83779-2.767738 6.24904 0 2.36979.917826 4.44547 2.750885 6.21925 1.82917 1.77896 4.226148 2.6665 7.185748 2.6665"/><path d="m123.67706 378.48755v-3.16145h-6.277v-14.09176h-4.32208v14.09176h-6.27181v3.16145z"/><path d="m141.1015 368.47197v-4.0749h2.41772c1.1421 0 1.96658.15937 2.46698.47551.50429.31615.75449.86681.75449 1.6494 0 .5999-.23854 1.07411-.71689 1.42395-.47966.34983-1.11358.52604-1.91344.52604zm0 6.85542v-3.69527h2.2453c.69356 0 1.23544.17492 1.61787.52993.38761.35502.57947.79944.57947 1.33196 0 .52993-.19186.96787-.57947 1.31381-.38243.34465-.92431.51957-1.61787.51957zm-4.32208 3.16145h7.48132c1.77991 0 3.18387-.43276 4.20411-1.28661 1.02153-.85385 1.52582-1.87095 1.52582-3.04484 0-1.50039-.79078-2.64577-2.37105-3.44908 1.19525-.31226 2.1053-.86163 2.74311-1.65458.63262-.78648.95412-1.70641.95412-2.75979 0-1.49651-.51725-2.71185-1.55045-3.64992-1.0345-.94066-2.55125-1.4084-4.55931-1.4084h-8.42767z"/><path d="m175.12328 367.6557-2.80015 6.70642-2.53828-6.70642zm-.35002 10.83055 7.67707-17.25451h-4.64358l-1.426 3.4154h-7.7354l-1.29118-3.4154h-4.57228l6.96148 17.25451z"/><path d="m208.30632 364.40355v-3.16145h-13.21125v17.25322h4.31689v-14.09177z"/><path d="m234.37103 364.40355v-3.16145h-13.21125v17.25322h4.31689v-14.09177z"/><path d="m280.58642 366.72281v-3.76912c-2.16752-1.15056-4.43875-1.72195-6.8098-1.72195-3.07498 0-5.5264.84607-7.35168 2.546-1.82529 1.69993-2.73404 3.79115-2.73404 6.27755 0 2.49029.95931 4.59835 2.88441 6.33455 1.92122 1.73362 4.43487 2.60043 7.53447 2.60043 2.47087 0 4.56321-.50402 6.27311-1.51594v-3.84557c-2.10141 1.17907-4.08873 1.77119-5.96457 1.77119-1.84602 0-3.3537-.49624-4.52561-1.48355-1.17191-.9873-1.75528-2.24929-1.75528-3.77819 0-1.54056.57559-2.81162 1.73065-3.81058 1.15376-1.00026 2.63292-1.50428 4.43875-1.50428.89579 0 1.75398.1205 2.57977.34983.82837.23711 2.06251.7502 3.69982 1.54963"/><path d="m307.91896 364.40355v-3.16145h-13.21644v17.25322h4.32208v-14.09177z"/><path d="m333.58698 378.74668h4.32208v-9.80956c0-2.52009-.7506-4.43639-2.2466-5.73984-1.49601-1.29956-3.63371-1.95388-6.40923-1.95388-2.75088 0-4.88081.66209-6.39755 1.98368-1.51675 1.31511-2.27512 3.21068-2.27512 5.68542v9.83418h4.31689v-9.92617c0-1.20757.39669-2.17414 1.18747-2.89843.79208-.72557 1.82658-1.08707 3.10998-1.08707 1.33266 0 2.39957.36927 3.19554 1.11169.80115.74631 1.19654 1.7997 1.19654 3.16922z"/><path d="m356.17613 368.47197v-4.0749h2.41772c1.1421 0 1.96658.15937 2.46698.47551.50429.31615.75449.86681.75449 1.6494 0 .5999-.23724 1.07411-.71301 1.42395-.47965.34983-1.11746.52604-1.91732.52604zm0 6.85542v-3.69527h2.2466c.69226 0 1.23414.17492 1.61657.52993.38761.35502.58336.79944.58336 1.33196 0 .52993-.19575.96787-.58336 1.31381-.38243.34465-.92431.51957-1.61657.51957zm-4.32208 3.16145h7.48132c1.7838 0 3.18387-.43276 4.20541-1.28661 1.02023-.85385 1.52971-1.87095 1.52971-3.04484 0-1.50039-.79208-2.64577-2.37235-3.44908 1.19265-.31226 2.1053-.86163 2.73922-1.65458.63262-.78648.95412-1.70641.95412-2.75979 0-1.49651-.51725-2.71185-1.55045-3.64992-1.0345-.94066-2.54995-1.4084-4.55931-1.4084h-8.42767z"/><path d="m30.471056 378.48755v-3.16145h-7.622623v-3.84815h7.622623v-3.16275h-7.622623v-7.08086h-4.323375v17.25321z"/></g></g></g></svg>