<svg height="332.105582" viewBox="0 0 509.9071 562.49994" width="301.109061" xmlns="http://www.w3.org/2000/svg"><g stroke-width=".998347" transform="matrix(1.0016557 0 0 1.0016557 .0221522682 -.046647)"><g fill-rule="evenodd" stroke-width=".998347"><path d="m64.820799 430.49999-37.791503 38.12402.873047 6.23584c2.744647 21.62899-1.336034 41.69712-12.575683 60.39844l-7.1132813 11.83594 12.8320313-5.10059c9.60888-3.81893 19.29117-7.46889 28.91162-11.29101 1.259859-.50052 2.476783-1.1439 3.596192-1.91163 2.562157-1.75678 4.461852-4.09486 5.283691-6.74267.821849-2.64782.538671-5.59944-1.199707-8.4668-3.894896-6.59294-5.521805-13.34767-5.433106-23.42578 22.524038 17.5645 46.608511 32.039 72.31641 42.62549 39.58779 16.30242 83.85116 29.15136 129.99023 28.82959 46.13906.32177 90.40097-12.52717 129.98876-28.82959 25.7079-10.58649 49.79237-25.06099 72.31641-42.62549.0887 10.07811-1.53821 16.83284-5.43311 23.42578-1.73838 2.86736-2.02155 5.81898-1.1997 8.4668.82183 2.64781 2.72153 4.98589 5.28369 6.74267 1.11941.76773 2.33633 1.41111 3.59619 1.91163 9.62045 3.82212 19.30274 7.47208 28.91162 11.29101l12.83203 5.10059-7.11328-11.83594c-11.23965-18.70132-15.32033-38.76945-12.57568-60.39844l.87304-6.23584-37.7915-38.12402c-49.39483 43.78258-112.43582 72.15865-189.68847 71.87549-77.25266.28316-140.29511-28.09291-189.689941-71.87549z"/><g fill="#fff" stroke-width=".998347"><path d="m65.083006 437.56493-30.660643 30.89063c27.284882 24.69878 57.947972 45.50345 92.062497 59.55175 40.44599 16.65569 84.03729 28.64308 128.02588 28.42822 43.98858.21486 87.57842-11.77253 128.02441-28.42822 34.11452-14.0483 64.77761-34.85297 92.0625-59.55175l-30.66065-30.89063c-53.64768 46.2819-117.92748 70.11318-189.42626 69.96387-71.49878.14931-135.78005-23.68197-189.427734-69.96387z"/><path d="m475.9969 474.20068c-2.83337 22.31636 1.31448 43.1505 12.60059 62.49317-9.14903-3.61998-18.5117-7.16487-27.62842-10.78711-1.92907-.76631-3.94157-2.11925-5.07861-3.78955-1.13703-1.67032-1.4693-3.59086-.0937-5.85938 5.16903-8.52568 5.90333-18.85362 6.27392-29.25l.0381-1.06201c4.74518-3.98483 9.80943-8.18685 13.88812-11.74512z"/><path d="m33.02358 474.20068c2.83337 22.31636-1.31448 43.1505-12.60059 62.49317 9.14903-3.61998 18.5117-7.16487 27.62842-10.78711 1.92907-.76631 3.94157-2.11925 5.07861-3.78955 1.13703-1.67032 1.4693-3.59086.0937-5.85938-5.16903-8.52568-5.90333-18.85362-6.27392-29.25l-.0381-1.06201c-4.74518-3.98483-9.80943-8.18685-13.88812-11.74512z"/></g></g><g stroke-width="2.67241"><path d="m51.315061 474.40859 19.387256-23.00403 15.770157 13.29072-3.2797 3.89154-11.125415-9.37624-4.588934 5.44502 9.603319 8.09346-3.279699 3.89154-9.60332-8.09346-8.238922 9.77593z"/><path d="m83.919939 481.81476q2.405367-3.91718 5.209237-5.8558 2.077054-1.42167 4.536675-2.05456 2.477104-.62215 4.740052-.26807 3.018597.45687 6.148847 2.37901 5.66592 3.47919 6.90008 9.07738 1.25166 5.60893-2.59263 11.86942-3.81208 6.20803-9.345539 7.65052-5.522716 1.425-11.171149-2.04346-5.718382-3.51141-6.95654-9.06388-1.22742-5.56997 2.530967-11.69056zm5.441041 3.1003q-2.673823 4.35436-2.048005 7.84514.636556 3.47328 3.731826 5.37395 3.095271 1.90067 6.43511.89319 3.368049-1.01423 6.106309-5.47352 2.70603-4.40682 2.09648-7.7672-.59208-3.34965-3.79227-5.31475-3.200191-1.9651-6.511804-.96437-3.300869.98324-6.017646 5.40756z"/><path d="m116.74088 501.11133q1.81889-4.22157 4.31585-6.54216 1.85177-1.70479 4.19524-2.68378 2.36231-.97088 4.65265-.94489 3.05291.0194 6.4264 1.47286 6.10621 2.6309 8.13025 7.99431 2.0429 5.37152-.8641 12.1185-2.88263 6.69044-8.1521 8.91137-5.26136 2.20209-11.34871-.42069-6.16274-2.65527-8.18419-7.97286-2.01332-5.33645.82871-11.93266zm5.82932 2.28817q-2.0219 4.69273-.90207 8.05772 1.12796 3.34613 4.46376 4.78339 3.3358 1.43725 6.49668-.0387 3.18785-1.48663 5.25848-6.29245 2.04625-4.74927.96121-7.98754-1.06621-3.23015-4.51508-4.71612-3.44887-1.48599-6.5828-.0208-3.1258 1.44635-5.18018 6.21446z"/><path d="m155.79453 532.09579 7.10789-23.96286-8.55817-2.53853 1.44725-4.87913 22.92015 6.79859-1.44726 4.87914-8.53849-2.5327-7.10789 23.96286z"/><path d="m186.72777 509.41642 11.8283 2.16842q3.51216.64385 5.17236 1.26115 1.68409.60083 2.86626 1.77726 1.20234 1.18011 1.82574 2.90087.62708 1.70056.27555 3.61812-.38113 2.07903-1.82972 3.6077-1.4284 1.53237-3.50507 2.04879 2.56046 1.28306 3.66593 3.44686 1.10547 2.16379.63553 4.72726-.37004 2.01848-1.67026 3.76213-1.27634 1.72715-3.12222 2.57796-1.82202.83432-4.25192.66008-1.52328-.11234-7.24298-1.11919l-10.07223-1.84647zm5.07182 6.0204-1.25442 6.84265 3.91584.71787q3.49198.64016 4.35824.69465 1.56736.0995 2.59441-.60926 1.05095-.72531 1.31368-2.15844.25162-1.37256-.35999-2.36094-.58771-1.00486-2.04809-1.46035-.86963-.26374-5.08826-1.03711zm-2.15731 11.76774-1.45055 7.91245 5.53064 1.0139q3.22958.59206 4.13082.56952 1.3766.002 2.3744-.77479 1.02167-.79327 1.31031-2.36769.24422-1.33219-.23148-2.3791-.4757-1.04691-1.62926-1.69652-1.13338-.6459-5.21071-1.39338z"/><path d="m245.70624 547.02268-6.59087-.473-2.13082-7.00405-11.99458-.8608-2.96584 6.63828-6.42713-.46124 13.84101-29.16813 6.40665.45977zm-10.30338-12.67233-3.33554-11.43162-4.85188 10.84404z"/><path d="m256.61237 546.97731-.88726-29.82462 6.07158-.18062.73654 24.75812 15.09692-.44912.15072 5.06649z"/><path d="m289.74243 545.31995-3.7111-29.60613 6.0271-.75548 3.08068 24.57675 14.98632-1.87853.63043 5.02938z"/><path d="m355.66148 520.41609 6.17773.10044q.11452 5.10664-2.22468 8.31289-2.32543 3.18071-6.96512 4.56925-5.74062 1.718-10.60747-1.08815-4.87274-2.82583-6.90847-9.62807-2.15339-7.19545.3738-12.27869 2.52131-5.10292 8.57649-6.91507 5.28845-1.58268 9.52677.55476 2.51903 1.25966 4.53752 4.42557l-5.34844 3.10008q-1.18187-2.08823-3.20194-2.89744-2.00042-.81508-4.32025-.12084-3.20453.95902-4.52144 3.85933-1.29725 2.89442.24426 8.04525 1.63564 5.4654 4.29587 7.19688 2.66023 1.73148 5.80577.7901 2.31985-.69426 3.54965-2.66884 1.22981-1.97458 1.00995-5.35748z"/><path d="m376.53251 524.74761-11.89024-27.36636 5.57114-2.42057 9.87037 22.71746 13.85257-6.01872 2.01987 4.6489z"/><path d="m390.96935 485.21867 5.20189-3.13643 8.41324 13.95372q2.00265 3.32147 2.78933 4.18906 1.28755 1.38033 3.11808 1.59458 1.83751.18608 4.01668-1.12783 2.21432-1.33509 2.79865-2.9095.57375-1.59199.007-3.04779-.56625-1.4558-2.40995-4.51366l-8.59337-14.25247 5.20189-3.13643 8.15893 13.53194q2.79735 4.63953 3.53054 6.80939.73319 2.16987.38558 4.17666-.33003 1.99618-1.7512 3.93138-1.43176 1.91763-4.48962 3.76133-3.69053 2.22517-6.11471 2.53658-2.41718.28324-4.34024-.4024-1.93364-.70322-3.18578-1.98509-1.84475-1.90703-4.45137-6.23022z"/><path d="m418.2916 468.98883 8.78629-8.21047q2.60889-2.43792 4.09352-3.40395 1.48562-.99504 3.1347-1.24407 1.66408-.26304 3.41764.26098 1.73956.50901 3.0706 1.93341 1.44314 1.54435 1.80844 3.61843.3803 2.06007-.44162 4.03584 2.55558-1.29273 4.95216-.89211 2.39659.4006 4.17599 2.3048 1.4011 1.49937 2.02745 3.58229.62732 2.05391.21147 4.04345-.41488 1.96052-2.00199 3.80874-.99745 1.15676-5.21263 5.15187l-7.48184 6.99151zm7.85681-.48882 4.74974 5.08286 2.90878-2.71814q2.5939-2.42391 3.15358-3.08734 1.01342-1.19978 1.05567-2.44698.0432-1.27621-.95154-2.34076-.95275-1.01957-2.11098-1.11689-1.15723-.12631-2.39287.77556-.72977.54151-3.86345 3.46983zm8.16844 8.74132 5.49233 5.87752 4.10826-3.83903q2.39899-2.24176 2.91762-2.97918.82145-1.10465.79168-2.36881-.0288-1.29317-1.12164-2.46267-.92473-.98959-2.04903-1.23094-1.12432-.24136-2.33316.29845-1.19385.52579-4.22257 3.35602z"/></g></g><ellipse cx="254.953561" cy="239.7686" rx="246.11703" ry="239.7686"/><ellipse cx="254.952891" cy="239.7686" fill="#fff" rx="238.97055" ry="232.80647"/><g fill-rule="evenodd" stroke-width=".998346" transform="matrix(1.0016557 0 0 1.0016557 -4.301848 -.046647)"><g><path d="m356.16064 35.542968-14.54151 26.575195 9.09522 4.977539 5.01562-9.166992 3.90967 2.140136c1.44275.78956 2.30176 1.618805 2.57373 2.496094.27833.880799.0407 2.007731-.70752 3.375l-1.45312 2.655762c-.14489.264719-.30583.655725-.47901 1.177734-.17319.521509-.35122 1.14543-.52881 1.880859l9.30176 5.088867.54199-.991699c-.47839-.325809-.45329-1.03227.0864-2.113769.01-.0344.0201-.06905.0337-.09375l1.86621-3.789551c.92105-1.809678 1.27363-3.369671 1.04444-4.6875-.22262-1.314599-1.04517-2.57381-2.47852-3.758789 1.91952.23398 3.54452.02791 4.88232-.632812 1.3379-.66073 2.45502-1.803202 3.34131-3.42334 1.49004-2.722887 1.64057-5.177246.44971-7.374023-1.18468-2.192858-3.92904-4.472074-8.23096-6.826172zm5.57666 11.408203 3.94922 2.160644c1.622.887749 2.61121 1.670006 2.96777 2.345215.35939.669049.28096 1.474513-.23438 2.416992-.50262.918009-1.13239 1.405579-1.88964 1.463379-.76098.06412-1.87212-.303183-3.34131-1.107422l-4.18213-2.288086z"/><path d="m296.82108 48.882547 7.36599-29.38429 25.35541 6.35586-1.7619 7.02961-15.16657-3.80194-.98331 3.92353 12.82138 3.21386-1.69064 6.74326-12.82098-3.21386-1.1373 4.53619 15.79126 3.95839-1.79245 7.15208z"/><path d="m245.65258 15.792647 10.73914-.1074 5.70512 19.5004 5.70845-19.61445 10.31455-.10299-10.70175 30.40166-10.45826.10465z"/><path d="m210.67529 20.362793c-1.70237-.01522-3.50874.200159-5.42139.645996-5.11506 1.192418-8.83633 3.523872-11.14746 6.997558-2.3122 3.466337-2.91236 7.606685-1.7915 12.414551 1.11752 4.793955 3.48604 8.243814 7.09424 10.337402 3.60878 2.093198 7.97945 2.546034 13.09423 1.353515 5.10068-1.188799 8.8055-3.524657 11.10938-6.996093 2.31083-3.473587 2.90142-7.611797 1.78418-12.405762-1.12085-4.807665-3.48155-8.259843-7.08838-10.346191-2.25078-1.309474-4.79602-1.975615-7.6333-2.000976zm-1.80029 7.832519c1.28985-.0059 2.38096.360286 3.27539 1.098633 1.29932 1.067309 2.27277 3.009491 2.92968 5.827148.65488 2.810897.63932 4.978217-.0542 6.509765-.69176 1.538499-2.10609 2.55228-4.24658 3.05127-2.14822.500569-3.88003.213405-5.1958-.856934-1.31705-1.077289-2.29544-3.005148-2.94726-5.802246-.65416-2.803947-.63018-4.972705.0747-6.521484.70684-1.541928 2.13352-2.566433 4.28174-3.067383.6689-.155906 1.29603-.236081 1.88233-.238769z"/><path d="m159.04687 39.51123c-1.32096-.002-2.74125.246026-4.25976.745605-1.51882.49949-3.70619 1.503091-6.55518 3.005859l-11.23535 5.925293 14.13428 26.794922 9.50537-5.014161c3.13064-1.651478 5.35703-2.936584 6.68994-3.854003 1.32566-.913899 2.36049-1.826081 3.08642-2.72461 1.90239-2.290077 2.9378-4.795945 3.09375-7.521972.1632-2.729347-.55734-5.605721-2.15918-8.642578-1.52048-2.881977-3.30829-5.050409-5.35546-6.495117-2.05414-1.441079-4.36399-2.183438-6.94483-2.219238zm-2.57519 8.985351c.52461-.000402 1.01261.08202 1.46338.246094 1.44891.521799 2.80836 1.994877 4.07958 4.404785 1.30703 2.478237 1.76248 4.430711 1.37842 5.863769-.39356 1.430319-1.74336 2.752728-4.05615 3.972656l-2.49316 1.31543-6.97852-13.229004 2.60742-1.375488c1.51183-.797513 2.84488-1.197357 3.99903-1.198242z"/></g><g><path d="m436.76968 357.79143 6.16134-7.99842c3.13084 2.79005 4.76567 5.98922 4.89441 9.59938.13324 3.60409-1.24881 7.29218-4.14185 11.04801-3.2399 4.20598-6.97998 6.61119-11.19976 7.20172-4.22429.59641-8.3962-.69714-12.50888-3.86519-4.10132-3.15942-6.42028-6.84673-6.9461-11.06357-.5312-4.22126.79309-8.39023 3.97229-12.5171 2.93084-3.80469 6.11386-6.11474 9.55915-6.94258 3.44031-.82197 6.90342-.10407 10.37789 2.15546l-6.21802 8.07146c-1.38303-.8714-2.68432-1.18527-3.9204-.94473-1.23021.24563-2.36771 1.04684-3.41368 2.40442-1.27544 1.65559-1.64981 3.33624-1.13221 5.05399.52308 1.72196 1.9487 3.47976 4.28205 5.2772 2.29301 1.76612 4.36301 2.66269 6.21567 2.68354 1.84796.0266 3.43119-.80973 4.73933-2.5082 1.00818-1.30873 1.44364-2.62215 1.31686-3.94204-.12688-1.3195-.80063-2.55636-2.03809-3.71335z"/><path d="m398.30987 414.54121-19.78881-24.85289 8.47579-6.74854 19.78881 24.85289z"/><path d="m351.51838 441.64462-9.86283-21.23989-8.65583 4.01919-3.51696-7.57413 26.97027-12.52356 3.51696 7.57413-8.65563 4.01919 9.86303 21.23998z"/><path d="m284.62578 459.38155-4.62411-31.43069 26.21898-3.85745 1.10617 7.51891-15.68279 2.30751.61726 4.19658 13.25781-1.95066 1.06124 7.21278-13.25791 1.95066.71379 4.85231 16.32903-2.40246 1.12536 7.65019z"/><path d="m224.94272 458.39443 3.27162-31.59996 10.59258 1.09638-2.40207 23.20563 14.39923 1.49042-.86887 8.39473z"/><path d="m159.82181 439.89192 10.67589-29.92136 10.03015 3.57853-3.62298 10.15419 9.33554 3.33095 3.62289-10.15419 10.03064 3.57883-10.6758 29.92156-10.03044-3.57873 4.14273-11.61084-9.33584-3.33095-4.14234 11.61074z"/><path d="m114.25887 410.79203 13.80008-18.92024-7.71041-5.62377 4.92114-6.74687 24.02446 17.52292-4.92114 6.74687-7.71031-5.62347-13.79988 18.91995z"/><path d="m96.339842 346.03271-32.304199 10.08545 6.375 8.31005 4.111816-1.53808 6.42627 8.37598-2.572266 3.54345 6.427734 8.37598 18.102543-28.59375zm-4.558594 10.31689-6.717773 9.31934-4.069336-5.3042z"/></g></g><g transform="translate(3.675471)"><path d="m251.27726 57.270751a180.92999 179.65439 0 0 0 -180.930409 179.655359 180.92999 179.65439 0 0 0 4.54413 39.1218h.1438a180.92999 179.65439 0 0 0 .71749 2.46941h351.051459a180.92999 179.65439 0 0 0 .7175-2.46941h.14378a180.92999 179.65439 0 0 0 4.54267-39.1218 180.92999 179.65439 0 0 0 -180.93042-179.655359z" fill="#bae3f9"/><path d="m75.752271 278.51732a180.92999 179.65439 0 0 0 175.524989 138.06414 180.92999 179.65439 0 0 0 175.52647-138.06414z" fill="#fff"/><g fill-rule="evenodd" stroke-width=".999999"><path d="m83.652041 294.44746a177.74924 176.49606 0 0 0 15.59707 33.2175c9.944719-1.07621 22.152999.6524 32.891769 3.58454 16.80498 4.58821 38.46505 2.53403 45.7832-1.65508 6.0675-3.47344 10.09725-3.66589 14.89279-3.67697 7.75678-.0177 16.72131 3.31161 24.45497 5.23961 15.2748 3.80844 32.06225 5.49918 45.59832-1.01094 11.17532-5.37429 23.04413-5.30173 36.77416 0 16.03979 6.19319 33.44382 5.28716 51.11525-1.2868 12.63929-4.70217 24.24693-3.4844 36.0376.7351 3.22081 1.15254 8.98421 1.84598 13.78059 2.18183a177.74924 176.49606 0 0 0 18.30271-37.2701z" fill="#fff311"/><path d="m217.27173 349.48834c10.12678 3.34843 29.60759 4.3669 45.18534-1.53996 14.29275-5.41989 23.12755-6.38973 37.46275-.48257 17.58341 7.24561 35.57368 4.7107 49.36856-1.01131 10.64846-4.4172 22.26215-2.37331 28.20462-.67771 2.49558.71222 9.4463 2.77888 14.42618 2.70641 2.71328-3.49974 8.30365-11.76113 10.75373-15.46258-4.80867-.1215-11.54095-.70997-15.87598-2.26132-11.79069-4.2196-23.3985-5.43764-36.03781-.73546-17.67147 6.57398-35.07524 7.48017-51.11505 1.28696-13.73007-5.30172-25.59802-5.37428-36.77338 0-13.53609 6.51016-30.32412 4.81976-45.59896 1.01133-7.73366-1.9281-16.69742-5.25789-24.45422-5.24006-4.79554.0111-8.82559.20368-14.89309 3.67723-7.31817 4.18903-28.97822 6.24273-45.78302 1.65481-12.74493-3.47993-23.66257-6.04533-33.072109-4.43947 2.408299 3.91935 4.964769 12.3954 7.661679 16.10548 9.44465-.64937 12.43868 2.98511 25.41043 5.5002 17.66618 3.42511 32.03894 3.15691 43.2087-2.02253 8.38303-3.88718 12.67187-3.2987 17.46741-3.30949 7.75651-.0178 16.88736 2.73799 24.45422 5.24004z" fill="#355daa"/><path d="m262.50296 364.71708c-16.87952 5.13934-36.58901 3.6533-51.66646-.16072-8.28084-2.0948-16.38087-4.03722-24.13209-3.76931-5.62199.19436-8.28909 2.05734-17.14556 4.68854-11.0616 3.28645-27.41855 2.0189-39.57256.16847 6.05338 5.59003 12.49762 15.19577 19.28675 19.90687 7.00604.66378 14.91181-.82529 21.02128-2.49509 8.91178-2.43528 13.6523-7.16397 19.26008-7.60144 9.31402-.72693 20.89515 4.76028 28.63666 7.60173 11.89464 4.36582 27.91298 3.17113 43.53084-1.3056 10.20071-2.92401 17.56527-3.68036 31.81456-.33194 16.78843 3.94504 38.23774 5.41882 53.17789 3.0816 4.61824-.72242 6.61213-2.46449 9.33816-2.45312 6.38413-4.75718 18.44724-14.36626 24.12837-19.92187-8.15621-1.86955-19.50014-1.00259-30.52476 2.36221-20.67129 6.30942-30.43033 4.23433-53.36156-.32742-14.98545-2.98128-19.07386-3.92415-33.7916.55709z" fill="#355daa"/><path d="m262.18162 397.15223c-23.54441 7.76789-34.00499 5.63142-46.74836 2.50058-6.75912-1.66028-11.86266-4.07173-20.76415-4.2404-5.6214-.10649-14.21932 2.60016-18.57681 4.82558 21.39793 9.16027 49.38458 15.34153 74.13466 15.34153 20.78721 0 44.84443-4.05572 63.37787-10.62842-2.9145-1.40896-15.37668-7.53038-20.75794-8.31507-11.29675-1.64754-21.99257-2.34525-30.66527.5162z" fill="#355daa"/><path d="m177.92442 328.09219c-7.31817 4.18912-28.97802 6.24302-45.78302 1.6548-12.81504-3.49905-26.26413-6.84365-36.903769-4.17176.76027 1.31148 1.53663 2.61208 2.32917 3.90189 9.409549-1.60586 21.829669.95954 34.574599 4.43947 16.8048 4.58793 38.46485 2.53422 45.78302-1.6548 6.0675-3.47356 10.09755-3.66614 14.89309-3.67723 7.7568-.0178 16.72056 3.31195 24.45422 5.24005 15.27484 3.80843 32.06287 5.49883 45.59896-1.01132 11.17536-5.37429 23.04331-5.30173 36.77338 0 16.03981 6.19321 33.44358 5.28702 51.11505-1.28697 12.63931-4.70217 24.24712-3.48414 36.03781.73547 4.33503 1.55134 11.06731 2.13981 15.87598 2.26131.87785-1.32619 1.73816-2.66464 2.5809-4.01554-4.934-.1115-14.06792-.84481-18.45688-2.41537-11.79069-4.21951-23.3985-5.43763-36.03781-.73546-17.67147 6.57398-35.07524 7.48017-51.11505 1.28697-13.73007-5.30174-25.59802-5.3743-36.77338 0-13.53609 6.51014-30.32412 4.81974-45.59896 1.01131-7.73366-1.928-16.69742-5.25779-24.45422-5.24004-4.79554.0111-8.82559.20376-14.89309 3.67722z"/><path d="m189.5544 375.4544c-5.60778.43747-10.3483 2.16119-19.26008 4.59647-6.10947 1.6698-14.01524 3.15887-21.02128 2.49509 2.75692 1.91329 5.57081 3.75038 8.43864 5.50805 6.41953-.0815 9.42406-.92846 12.58264-1.88779 8.83921-2.68485 10.97432-3.95798 16.59406-4.18285 15.99284-.63994 22.3453 4.65296 29.18837 5.92992 12.83622 2.39586 25.43102 4.4576 46.01288-2.04116 10.11844-3.19467 17.2042-5.11296 31.21698-.88364 16.42011 4.95596 39.80343 6.33471 55.1113 2.34299 4.16627-2.59785 8.21682-5.36428 12.14205-8.28938-2.72602-.0113-9.22737 1.7307-13.84561 2.45313-14.94015 2.33721-36.38946.86343-53.17789-3.08161-14.24929-3.34842-21.61385-2.59207-31.81456.33194-15.61786 4.47673-31.6362 5.67143-43.53084 1.3056-7.74151-2.84145-19.32264-5.32369-28.63666-4.59676z"/><path d="m194.94487 393.4939c-5.60533-.45088-14.59154 2.06029-18.97187 4.3316 1.5025.69379 3.01628 1.36728 4.54095 2.01998 4.35748-2.22542 8.53376-3.03708 14.15516-2.93058 8.90149.16866 14.00503 2.58011 20.76415 4.24039 12.74337 3.13084 23.20395 5.26731 46.74836-2.50058 8.6727-2.86145 19.36852-2.16374 30.66527-.51619 5.38126.78469 14.52721 5.16903 17.4417 6.57799 1.48467-.5264 2.96011-1.07211 4.42614-1.63665-10.55403-5.34733-16.10218-7.16735-21.40812-8.36234-11.27537-2.53931-22.54368-1.97811-31.21698.88364-23.54471 7.76848-33.54477 5.26398-46.01288 2.04116-6.73912-1.74177-8.73665-3.15142-21.13188-4.14842z"/><path d="m175.3501 344.40276c-11.16976 5.17944-25.54252 5.44764-43.2087 2.02253-12.97175-2.5151-17.46826-6.14958-26.91291-5.5002 1.95192 2.68493 3.9769 5.3128 6.07279 7.88104 6.22684-.28163 11.87391 3.67391 20.84012 4.56843 17.74512 1.77011 31.39546 2.51342 43.2087-2.02254 8.62633-3.31233 12.67187-3.2987 17.46741-3.30949 7.75651-.0178 16.88736 2.73799 24.45422 5.24004 10.12678 3.34843 29.60759 4.3669 45.18534-1.53996 14.29275-5.41989 22.5429-4.70051 37.46275-.48257 21.07687 5.95855 35.03973 3.27704 49.36856-1.01131 11.04435-3.30508 22.16291-3.60496 28.06674-1.78091 2.8792.88952 10.719 1.98919 12.98473 2.52981 1.56584-1.85769 3.09434-3.74794 4.58429-5.66947-4.97988.0724-14.93556-1.99418-17.43114-2.70641-5.94247-1.69559-17.55616-3.73949-28.20462.67771-13.79488 5.72202-31.78515 8.25693-49.36856 1.01131-14.3352-5.90715-23.17-4.93732-37.46275.48257-15.57775 5.90686-35.05856 4.88839-45.18534 1.53997-7.56686-2.50206-16.69771-5.25789-24.45422-5.24005-4.79554.0108-9.08438-.57768-17.46741 3.3095z"/><path d="m371.63001 358.49082c-6.97861.14531-15.0716 1.54417-21.97382 3.60948-14.32833 4.28748-31.58014 4.62654-53.04031.24797-14.97122-3.05463-17.62244-4.61989-34.11254 1.01682-17.07661 5.83713-41.37014 2.18159-51.66695-.16141-8.32888-1.89494-16.37626-3.78638-24.13217-3.76941-4.79474.0103-8.76843.45777-17.28296 4.04527-10.34299 4.35796-34.31516 2.68105-46.13094.0865 1.21343 1.18606 2.4447 2.35425 3.69165 3.50531 12.154 1.85043 31.51562 3.11771 42.57721-.16873 8.85646-2.6312 11.52305-4.49357 17.14504-4.68793 7.75121-.26791 15.85134 1.67462 24.13217 3.76941 15.07744 3.81402 34.78745 5.29927 51.66695.15993 14.71774-4.48123 18.80577-3.53737 33.79121-.55609 22.9312 4.56174 32.69037 6.63661 53.36164.3272 11.02461-3.3648 20.86638-4.23185 29.02258-2.3623 1.28981-1.26138 2.55962-2.54297 3.8105-3.84278-2.88619-.94253-6.6721-1.30649-10.85926-1.2193z"/></g></g><path d="m254.95273 52.902691a185.32921 184.02293 0 0 0 -185.329278 184.023419 185.32921 184.02293 0 0 0 185.329278 184.02341 185.32921 184.02293 0 0 0 185.32929-184.02341 185.32921 184.02293 0 0 0 -185.32929-184.023419zm0 7.527091a177.74924 176.49606 0 0 1 177.74938 176.496328 177.74924 176.49606 0 0 1 -4.46196 38.43365h-.14233a177.74924 176.49606 0 0 1 -173.14509 138.06268 177.74924 176.49606 0 0 1 -173.143608-138.06268h-.14232a177.74924 176.49606 0 0 1 -4.46344-38.43365 177.74924 176.49606 0 0 1 177.749368-176.496328z"/><g stroke-width=".998346" transform="matrix(1.0016557 0 0 1.0016557 -533.84667 -.046647)"><g fill-rule="evenodd"><path d="m643.63605 213.90324.0117-12.08086c.0153-1.48358.60414-2.9186.63107-4.40217l.002-6.71525c.0289-.62833.59641-1.60713 1.31519-1.66235 1.02874-.0793 1.96701-.0391 2.81032-.0608 1.33066.0841 2.22595 1.6593 2.22595 2.52376.36713 3.73254.18337 7.05213.55059 10.78466.0915 1.41505 1.12419 2.73787 2.9369 2.77625l4.42821.0457c1.26213-.0918 2.51926-1.57629 2.91419-2.82226.51535-1.62592.73513-2.07333.73876-3.8974-.12571-7.7478-7.13378-14.59013-15.38332-14.57045-8.38259.02-10.38699 3.06681-10.50917 8.05364l-.15703 23.24469c-.24475 4.31367-3.24274 8.26011-7.3424 9.91217l-69.29498 27.25918c-6.63919 3.12026-11.5337 8.2604-14.96039 13.21649l-11.5894 18.65905v12.82431l509.06426.0913v-2.09163c-8.3854-17.54544-20.2484-36.21389-32.1459-50.63563-1.8729-2.27059-4.582-3.417-7.5262-4.4055l-76.29957-25.61406c-1.19242-.40041-.93328-1.98247-.8436-3.08953l.59631-7.3657c.19903-1.04009-1.03206-1.75476-2.84498-2.01919-5.31548-.77507-10.59238-1.87263-15.51127-3.85461-2.33217-.93994-3.54133-2.88394-3.39595-4.68138v-17.53017c-.0233-.89324-.71291-2.00225-1.51579-2.01243l-15.00503-.18953c-2.61579.0304-4.4055 1.71334-4.4055 4.22203l.0114 12.87434c.0305 5.99676-7.15502 3.24851-7.1703-.20843v-11.79401c-.02-.48696-.10847-1.41417-.98937-1.41475l-12.18884-.008c-.32611-.0216-.69098.49391-.69069.73709l.01 9.72568c-.0841 1.30785-.92525 2.36321-1.92736 2.38631l-8.62753-.36722c-1.5294-.0457-1.31568-.91801-1.28494-2.20285v-4.49733c.0231-1.48357-2.13373-3.03686-4.4055-3.02883-4.22203 0-9.1559-.0918-13.37793-.0918l.005 7.05242c.004.75511-1.94821 1.26154-3.14895 1.29982-1.56797.0767-4.76518-.26002-4.77262-.96343l-.002-49.14873c-.0152-1.74389-1.03451-3.26966-2.9369-3.30412-5.78247-.0605-6.83949.90587-7.98678.91889-1.54516.0174-4.09937.45876-4.17592-2.15713l-.047-32.90369c6.70028-.42851 13.90503-.4896 20.92642.91771.9182-5.743993 1.03979-11.388023 0-16.887753-7.58725-1.86626-14.99123-2.99818-22.76185-3.12056-1.32311-.0918-3.88545.8719-3.8549 2.20285l.0905 55.344423c.0258 2.38357-2.54167 2.12443-4.19041 2.11778-.21038-.00089-.47648-.19649-.47423-.46601l-.0181-2.78065c-.007-1.01317-1.67947-2.48147-3.30099-2.63439l-11.19731-.73435c-1.10147-.0766-1.43913 1.00103-1.78961 1.88154l-1.88154 4.7269c-2.74551.007-4.75794-2.16623-6.18581-3.35209-2.71565-2.25591-5.94791-5.29991-8.38386-5.27495l-9.305-.0347c-3.28993-.0122-4.73709 2.3777-4.73797 4.73768l-.0233 48.16267c-.00029 1.24608-.58887 1.8277-1.33065 1.88125l-4.06139-.023c-.79142.009-.71046.84508-.72152 1.33595l.023 3.47643c.0117 1.76082 1.51441 2.82999 3.30412 2.79925l4.88169.006c2.29448-.14538 5.6501-3.66919 5.62739-5.92539l.046-38.41067c.03-2.27784 1.32958-4.25365 1.37677-6.42468.0305-1.41084.12237-3.61016.18346-4.31367.061-.74923.62607-1.50796 1.83572-1.56014 1.59675-.0688 3.54995 2.04279 3.5197 3.14142l-1.04185 37.42579c-.0174.63498-.0918 1.36149.55088 1.83572l3.48779 2.29448c1.0629 1.00181 1.73616 2.11885 1.7436 3.48779l-.0283 2.52396c.0613 1.12448.67855 2.51231 1.95585 2.52396l5.85696.003c1.41505.038 2.1354 1.56484 2.58662 2.32581l1.73586 2.48422c.58084.79563 2.31642.67609 3.67625.62088.93935-.0384 1.56953-.86759 2.29781-1.67067.55078-.67296 1.59567-1.5055 1.66479-2.36193l.0102-4.68794c-.0996-.72681-.74923-2.11268-2.40903-2.12825l-5.35797-.00029c-1.01346 0-2.02721-.95218-1.99637-1.73224.0305-.92545.26727-2.58917-.43654-3.26242-1.10147-1.2544-2.15184-1.85766-2.94777-3.35739-.39737-.74922-1.0767-1.18576-1.10137-2.29438-.0741-3.32713-1.11146-4.03808-1.11704-6.05727l.004-3.28689c-.0383-.94043 1.1744-4.0791 1.11312-5.5244v-10.33089c.0305-1.49885.28969-2.79622 2.11102-2.79378l3.49326.005c1.57159-.11464.56812-5.80527 3.52802-5.60409 2.23095.15184.625 23.31263.59671 34.78533-.002.89461.31582 2.66161 1.33065 2.66161h3.35014c1.77434 0 3.93979 2.00499 3.94644 3.76298l.0469 12.27578c.003.90136-.10456 1.68867 3.56659 1.63512 3.67125-.0536 2.30055-2.40609 3.47114-2.40609l1.77826.00059c.87199 0 1.36071 1.67341 1.41759 4.73993.0114.61853 1.14445 1.01845 2.20256 1.00954l2.08771-.0174c1.54712-.0953 2.71183-1.76386 2.73102-3.03431l-.0127-5.4634c-.002-.92575-.6294-2.12962-1.93763-2.13158l-4.17602-.006c-.90245.0308-1.85296-1.06476-1.90651-1.79128l.002-7.38097c.0916-3.45724-.45896-4.8951-4.4055-4.86455-1.22385-.061-2.28694-1.76328-2.22585-3.43062l-.0686-23.00267c-.061-1.02482 1.2305-1.27065 2.56977-1.28484 1.83132-.0192 2.83617.72622 3.00573 1.37677.2983 1.02481 1.09922 2.06823 2.26815 2.09907 1.13162.0297 2.86416-.73405 2.8947-1.85824v-5.74781c.0189-.94434.79534-2.78427 2.01919-3.48778 1.22355-.57389 3.09011.50477 3.12056 1.10147l1.10118 52.75194c.0248 1.17715.16486 2.95246 1.28523 2.95961l2.18983.0148c1.68417.0111 1.90592-.95521 2.37632-1.50609.85555-1.00181 1.79686-1.21915 3.14338-1.72089 1.09031-.40599 2.2795-.67658 3.48778-.66542 3.30794.0305 4.33668.4892 4.4055 2.13373.0306 2.72299.0269 5.44872.0574 8.17161.21479 2.44241-1.40056 2.54041-3.26957 2.56704-20.86503.36712-39.98646-.0003-61.95286-.64272l-47.10683.13794c-16.6429.61188-27.0385 2.57301-41.09469 5.73645-4.97302 1.1189-8.72749 3.56464-13.49238 4.95609-2.26863.66239-4.08997.5178-6.60815.64242-10.29477.046-11.43481 3.73998-14.04287 3.64844-2.09555.046-1.66675-1.88183-1.65177-3.09785.0156-1.24666.48921-2.4474.73406-3.67125z"/><path d="m568.07508 253.414 126.47493-40.93462 184.29691-3.67125 112.80358 31.295-76.17871-1.65206-22.39462 37.81377 9.36158-40.38374c-3.85491-5.07847-7.4123-10.39757-11.56443-15.23569-2.25728-2.63028-7.08404-3.92872-11.38107-1.65206-7.31322 3.87439-14.31209 8.32091-21.56903 12.29937-2.28117 1.25048-3.30628 2.55999-4.1302 4.58887-4.40834 10.85348-6.05727 23.93987-5.59831 36.94236-4.03828-11.07513-8.2609-23.93978-12.29928-35.01501-.8109-2.52396-2.59865-4.57751-4.08526-6.74521-1.25655-1.8321-3.02874-2.38631-4.95609-2.20285l-35.97824 2.20285-4.95639 3.30403-14.6848 33.95915-3.48778-31.93997c-.38377-1.54212-1.52411-2.8667-3.30403-2.9369l-13.63081.6902c-1.31568.10681-2.03416.44349-2.56977 1.28484l-7.15904 13.58372-7.43364-24.4141-58.00584 11.7479-1.47026 38.54831-27.71783-40.38384z" fill="#49a23c"/><path d="m770.7161 289.02541c-1.41887.0442-1.71335-1.83934-.81443-3.86049l18.16896-44.70015c1.1933-2.32532 2.47814-2.53923 4.4055-2.57007l27.81025-1.92677c4.61696-.31964 4.29585 1.33898 5.13985 2.75344l19.27396 42.0358c.67296 1.20838 1.62151 2.53179 3.12066 2.38641l3.48778-1.97347 3.25792-37.83648c.0877-1.0207.6339-2.32111 1.53742-2.91409l24.39109-16.01604c1.39253-.91419 3.26663-.44907 4.03838.55078l9.17812 11.88584c1.02374 1.32625 1.61545 3.1048 1.28484 4.63478l-8.69411 40.25863 8.32923.58495 23.08286-36.34546 86.59642.0924 28.6357 40.01701c1.3614 1.7438.1873 2.89686-1.8472 2.94268z" fill="#fff"/><path d="m682.11388 242.2211 43.59681-11.47427 13.90474 31.09107 8.19158-15.35032c1.57541-2.52367 4.50507-6.74599 9.29306-7.48034 1.03255-.12238 2.49508-.23535 3.02873.73435 1.00739 1.82955 1.54486 3.41112 1.56014 5.32321l2.20206 35.24428c.25258 3.17412 1.42278 5.79745 2.13412 8.69636l-81.94952.0233c-1.58686.0305-2.62362-.71907-2.69607-2.11102l-.45896-42.51678c.0458-1.11694.0233-1.86627 1.19331-2.17984z" fill="#fff"/><path d="m641.59131 240.56825 29.92049 45.34013c1.05565 1.48357-.22918 3.05927-1.97308 3.12066l-130.28324-.006c-2.67462 0-4.43682-.81306-2.75343-3.57374l12.84937-20.00819z" fill="#fff"/></g><path d="m675.82624 194.93091 2.01175-4.00754c.41098-.81893 1.21797-1.23775 2.15673-1.23912l5.78531-.008c.62636-.0127.81648-.50673.77732-1.41417l-.0632-18.80952c.002-1.40947.48588-2.29086 3.27544-2.30026h13.76708c.93299.0802 1.69426.2753 2.38632.82608l7.1512 4.64085c.53815.40325.89245.85252.92554 1.41671v2.6386c-.0231 1.1703-.90606 1.3196-1.06701 3.31568-.0355 1.42954 1.63865 5.89936 3.43864 8.75138" fill="none"/><path d="m718.77232 188.70633c-.003-.89393.41852-1.44471 1.19575-1.44305l6.37671.0152c.8533.0284 1.85599.62969 1.87156 1.42669" fill="none"/><path d="m731.8825 188.7077c.004-.86671.68441-1.6412 1.73194-1.63591l6.80904.0169c1.02345.0105 1.67977.85858 1.69338 1.61456" fill="none"/><path d="m718.78651 190.69213c.0344 1.09012.2098 1.92706.75148 2.74237.55001.82755 1.18998 1.19194 2.28303 1.19223l1.81859.00088c.7415 0 1.89985-1.70865 3.47026-1.69788.5453.004 1.10676-.24279 1.10118-1.14719l.005-3.07739c-.0156-.797-1.01826-1.3983-1.87156-1.42669l-6.37671-.0152c-.77723-.002-1.19879.54912-1.19575 1.44305z" fill-rule="evenodd"/><path d="m731.8825 188.7077c-.0688 1.49914-.1587 2.51123.25228 3.48808.35939.60433.68432 1.04449 1.54878 1.0439l6.48519-.004c.88717.0305 1.97866-.5642 1.94811-1.268v-3.26428c-.0136-.75599-.66993-1.60409-1.69338-1.61457l-6.80904-.0169c-1.04753-.005-1.72832.7692-1.73194 1.6359z" fill-rule="evenodd"/><path d="m716.37132 188.74128c-1.79999-2.85202-3.47418-7.32184-3.43864-8.75138.16095-1.99608 1.04391-2.14538 1.06701-3.31568v-2.6386c-.0331-.56419-.38739-1.01346-.92554-1.41671l-7.1512-4.64085c-.69206-.55078-1.45333-.7459-2.38632-.82608h-13.76708c-2.78956.01-3.27378.8908-3.27544 2.30026l.0632 18.80952c.0392.90744-.15096 1.40144-.77732 1.41417l-5.78531.008c-.93876.00098-1.74575.42019-2.15673 1.23912l-2.01175 4.00754c-.0458 2.03446.82589 4.5218 2.15684 4.42243l6.34166-.62137c.74179-.0383.92418-1.58901.9092-2.68275.038-.64986.76509-1.20848 1.67526-1.26213 1.26996-.0996 2.4988-.9976 3.94655-2.79925 1.7109-2.12933 1.50658-7.08982 1.35366-15.94693-.0993-.81061-.24475-1.69034.80347-2.50095 1.30784-.96373 2.38376-1.71472 4.47432-1.78961l4.46287-.16017c.80708-.01 2.75216 1.56435 3.33878 2.36331.56312.76675.26002 1.34622.32111 1.83572-.0611 4.46659-.25395 8.14166-.31504 12.60824-.004.78751.88139 1.32038 1.46223 1.34231 1.22444.0466 2.4477.12238 3.67154.18366 1.02061.0572 1.63503.4474 2.55255.48177l3.38949.065c.18396-.56312.24475-1.15395.00059-1.72891z" fill-rule="evenodd"/><path d="m763.50291 138.36767c-1.20965.0522-1.77591.81083-1.83691 1.56006-.0611.70351-.15251 2.90313-.18311 4.31397-.0472 2.17102-1.34695 4.14696-1.37695 6.4248l-.0454 38.41113c.0227 2.2562-3.33345 5.77992-5.62793 5.9253l-4.88086-.006c-1.78971.0307-3.29299-1.03849-3.30469-2.79932l-.0234-3.47607-4.10596-.0176v3.26367c.0305.70381-1.06107 1.29915-1.94824 1.26855l-6.48633.003c-.86446.00059-1.18895-.43863-1.54834-1.04297-.41098-.97683-.32075-1.98864-.25195-3.48779l-3.66651-.003-.004 3.07617c.006.9044-.55626 1.15244-1.10156 1.14844-1.57041-.0108-2.72872 1.69776-3.47022 1.69776l-1.81933-.001c-1.09305-.00029-1.73222-.36483-2.28223-1.19238-.54168-.81531-.71707-1.65207-.75147-2.74219l-.0146-1.98633-2.41407.003c.2603.58524.20048 1.18852.0132 1.76221l-3.38965-.0659c-.91752-.0344-1.53262-.42473-2.55322-.48193-1.22384-.0613-2.44646-.13651-3.6709-.18311-.58084-.0219-1.46592-.55429-1.46192-1.34179.0611-4.46659.25384-8.14279.31494-12.60938-.0611-.4895.24086-1.0687-.32226-1.83545-.58662-.79897-2.5313-2.37279-3.33838-2.36279l-4.46191.15967c-2.09056.0749-3.16726.82631-4.4751 1.79004-1.04822.8106-.90204 1.68987-.80274 2.50048.15292 8.8571.35592 13.81843-1.35498 15.94776-1.44774 1.80165-2.67633 2.69971-3.94629 2.79931-.91016.0537-1.63631.61137-1.67431 1.26123.015 1.09374-.16788 2.6453-.90967 2.6836l-6.34131.62109c-1.33095.0994-2.20351-2.3879-2.15771-4.42236l-1.58203.38965c0 1.07093-.0234 3.23717-.0234 4.3081 0-1.07093.022-3.23717.022-4.3081l-6.77637.004c-.055.004-.11009.0113-.16552.0234-.0554.0122-.11166.0283-.167.0483-.0277.01-.0545.0218-.082.0337-.0276.0119-.0561.0244-.0835.0381-.027.0135-.0538.0274-.0806.0425-.0813.046-.16226.10007-.24023.15966-.052.0397-.1025.0825-.15235.12745-.0498.0449-.0993.0912-.14648.14062-.0472.0494-.0922.10201-.13623.15527-.0441.0533-.087.10765-.12744.16407-.0404.0564-.078.11395-.11426.17285-.0362.0589-.071.11948-.10254.18017-.0316.0607-.0601.12129-.0864.18311-.00017.0004.00018.001 0 .001-.0212.0499-.041.1007-.0586.15088-.015.0428-.0289.0846-.041.12744-.0177.0622-.0327.12439-.0439.18604-.0106.0587-.0176.11821-.022.17578-.00019.002-.001.005-.001.007-.00003.00047.00003.00098 0 .001-.002.0297-.003.0601-.003.0894-1.15502.28694-2.25524.57145-3.41015.85839-.004 1.82407-.22294 2.27203-.73829 3.89795-.39492 1.24597-1.65291 2.72949-2.91503 2.82129l-4.42823-.0454c-1.81271-.0384-2.84551-1.36083-2.93701-2.77588-.36722-3.73252-.18365-7.05311-.55078-10.78564 0-.86446-.89444-2.43836-2.2251-2.52246-.84331.0217-1.78229-.0192-2.81103.0601-.71878.0552-1.28653 1.03426-1.31543 1.66259l-.001 6.71631c-.0269 1.48357-.61604 2.91828-.63134 4.40186l-.0117 12.08056c-.24485 1.22384-.71829 2.42425-.73389 3.6709-.015 1.21602-.4432 3.14415 1.65234 3.09815 2.60805.0915 3.74724-3.60293 14.042-3.64893 2.51817-.12463 4.33927.0208 6.60791-.6416 4.76488-1.39146 8.51965-3.83813 13.49267-4.95703 14.05617-3.16344 24.45184-5.12446 41.09473-5.73633l47.10644-.13769c21.96639.64241 41.08909 1.01019 61.9541.64306 1.86901-.0266 3.48432-.12547 3.26953-2.56787-.0305-2.7229-.0281-5.44791-.0586-8.1709-.0688-1.64452-1.09685-2.10368-4.40479-2.13428-1.20828-.0112-2.39748.26052-3.48779.66651-1.34651.50174-2.288.71792-3.14355 1.71973-.47041.55088-.6918 1.51842-2.37598 1.50732l-2.18994-.0161c-1.12037-.007-1.25987-1.78184-1.28467-2.95899l-1.10156-52.75195c-.0305-.5967-1.89804-1.67545-3.12158-1.10156-1.22385.70351-1.99966 2.54344-2.01856 3.48779v5.74805c-.0305 1.12419-1.7629 1.88858-2.89453 1.85888-1.16892-.0308-1.96928-1.0743-2.26758-2.09912-.16957-.65055-1.17454-1.39615-3.00586-1.37695-1.33927.0142-2.6318.25985-2.5708 1.28467l.0688 23.00244c-.0611 1.66733 1.00271 3.36966 2.22656 3.43066 3.94654-.0305 4.49639 1.40751 4.40479 4.86475l-.001 7.38135c.0535.72652 1.00332 1.82083 1.90576 1.79003l4.17627.006c1.30824.002 1.93599 1.20708 1.93799 2.13282l.0132 5.4624c-.0192 1.27044-1.18483 2.93986-2.73194 3.03516l-2.0874.0176c-1.0581.009-2.19183-.39221-2.20313-1.01074-.0569-3.06652-.54451-4.73877-1.4165-4.73877l-1.77832-.001c-1.17059 0 .19957 2.35314-3.47168 2.40674-3.67115.0536-3.56389-.73341-3.56689-1.63477l-.0469-12.27686c-.007-1.75798-2.17195-3.76318-3.94629-3.76318h-3.3501c-1.01482 0-1.33207-1.76701-1.33007-2.66162.0283-11.4727 1.63328-34.63233-.59766-34.78418-2.95991-.20118-1.95576 5.48839-3.52734 5.60303l-3.49366-.004c-1.82132-.002-2.08024 1.29461-2.11084 2.79346v10.33154c.0613 1.4453-1.15158 4.58351-1.11328 5.52393l-.004 3.28711c.006 2.01918 1.04357 2.73 1.11767 6.05713.0247 1.10862.70419 1.54471 1.10157 2.29394.79593 1.49973 1.84578 2.10304 2.94726 3.35742.7038.67326.46713 2.33676.43653 3.26221-.0308.78007.98312 1.73291 1.99658 1.73291h5.3584c1.65978.0156 2.3086 1.40161 2.4082 2.12842l-.0103 4.6875c-.0691.85643-1.11328 1.68982-1.66407 2.36279-.72828.80307-1.35899 1.63152-2.29834 1.66992-1.35983.0552-3.09445.17454-3.67529-.62109l-1.73584-2.48291c-.45122-.76098-1.17186-2.28817-2.58691-2.32617l-5.85791-.003c-1.27731-.0117-1.89427-1.39945-1.95557-2.52393l.0293-2.52392c-.007-1.36893-.68173-2.48599-1.74463-3.4878l-3.48779-2.29541c-.64268-.47422-.56819-1.20047-.55079-1.83545l1.04151-37.42529c.0303-1.09863-1.92181-3.21089-3.51856-3.14209z" fill="#fff"/></g></svg>