<svg xmlns="http://www.w3.org/2000/svg" width="316.22776601683796" height="316.22776601683796" viewBox="0 0 544 544" fill="none"><g clip-path="url(#clip0_2480_6435)"><path fill-rule="evenodd" clip-rule="evenodd" d="M79.64 79.64C130.78 28.49 199.55 0 271.89 0C344.23 0 413 28.49 464.15 79.64C515.3 130.78 543.79 199.55 543.79 271.9C543.79 344.25 515.3 413.01 464.15 464.16C413 515.31 344.23 543.8 271.89 543.8C199.55 543.8 130.78 515.31 79.63 464.16C28.49 413.01 0 344.24 0 271.9C0 199.56 28.49 130.78 79.64 79.64Z" fill="#487C9E"/><path fill-rule="evenodd" clip-rule="evenodd" d="M461.82 383.86C456.97 392.12 442.93 400.95 428.92 389.5C417.35 380.04 418.23 367.62 422.71 360.7C425.55 356.32 427.53 354.2 432.3 351.49L437.53 361.73C435.99 362.74 434.95 363.29 433.14 365.72C430.54 369.21 430.75 377.34 436.97 380.66C440.78 382.7 446.51 384.28 451 379.16C453.32 376.5 453.61 372.56 453.68 371.49H464.93C465.11 375.59 464.16 379.88 461.83 383.85L461.82 383.86Z" fill="white"/><path fill-rule="evenodd" clip-rule="evenodd" d="M376.529 413.4L399.959 392.64L407.449 401.05L392.679 414.21L398.079 420.25L409.339 410.44L416.779 418.81L405.449 428.61L414.529 438.81L405.749 446.49L376.529 413.4Z" fill="white"/><path fill-rule="evenodd" clip-rule="evenodd" d="M327.641 439.01L337.901 434.26L344.661 449.06L356.431 443.59L349.731 429.16L360.371 424.09L378.711 464.33L368.021 469.37L360.721 453.6L349.011 459.07L356.201 474.41L345.281 479.09L327.641 439.01Z" fill="white"/><path fill-rule="evenodd" clip-rule="evenodd" d="M316.25 487.35C305.96 490.34 293.32 485.32 289.98 470.85C286.69 456.58 292.79 445.76 306.06 442.94C312.52 441.57 317.24 442.47 321.41 444.25L317.76 454.69C314.85 453.52 311.12 453.26 308.62 453.91C301.35 455.83 300.64 463.96 301.45 467.31C302.5 471.71 305.49 477.69 312.44 476.21C314.15 475.85 315.52 475.66 316.29 475.23L315.15 469.75L310.23 470.57L308.46 460.5L324.82 457.58L328.94 479.96C325.2 483.55 322.55 485.51 316.26 487.34L316.25 487.35Z" fill="white"/><path fill-rule="evenodd" clip-rule="evenodd" d="M259.69 491.2C246.51 490.62 241.76 483.15 242.24 473.45L243.63 445.79L255.22 446.43L253.87 471.7C253.61 476.62 254.61 479.35 259.99 479.75C264.48 480.09 266.56 477.23 266.77 473.02L268.05 447.05L279.76 447.39L278.15 473.21C277.43 484.76 272.26 491.72 259.69 491.17V491.2Z" fill="white"/><path fill-rule="evenodd" clip-rule="evenodd" d="M202.3 480.12C189.53 474.59 187.66 462.2 192.05 450.91C196.3 439.96 207.75 432.93 219.52 438.15C232.69 443.99 235.42 456.1 230.52 467.87C225.6 479.67 213.7 485.07 202.3 480.13V480.12ZM206.94 469.71C212.1 471.77 216.99 468.87 219.39 463.28C221.81 457.64 221.15 451.08 215.55 448.78C209.41 446.26 205.31 450.55 202.88 456.22C200.45 461.9 201.87 467.68 206.94 469.71Z" fill="white"/><path fill-rule="evenodd" clip-rule="evenodd" d="M162.73 409.41L178.37 419.58C187.55 425.55 190.09 433.49 184.97 442.39C181.98 447.59 176.64 450.73 169.88 449.51L170.41 466.73L159.57 459.85L159.39 445L155.5 442.34L148.72 452.9L138.68 446.51L162.71 409.41H162.73ZM165.42 436.86C168.63 438.98 171.82 440.37 174.44 436.5C177.22 432.39 174.58 429.69 171.28 427.72L166.49 424.85L160.88 433.84L165.43 436.86H165.42Z" fill="white"/><path fill-rule="evenodd" clip-rule="evenodd" d="M109.54 338.51L119.83 357.72C122.87 363.38 123.87 370.98 115.73 375.49C109.62 378.88 106.89 376.78 104.41 374.65C105.06 380.16 102.75 383.62 98.6303 385.81C91.2503 389.74 85.0303 385.62 81.6903 379.67L70.3203 359.44L109.54 338.49V338.51ZM103.35 363.9C104.37 365.76 105.76 368.15 108.8 366.38C110.94 365.13 110.56 363.48 109.12 360.95L105.17 354.01L99.6403 357.13L103.35 363.9ZM89.9403 371.74C91.5003 374.56 92.4503 375.83 95.1503 374.15C97.1503 372.9 96.7903 370.74 95.1503 367.94L91.4403 361.59L85.9003 364.45L89.9303 371.74H89.9403Z" fill="white"/><path fill-rule="evenodd" clip-rule="evenodd" d="M483.049 283.02C479.719 283.02 476.849 281.87 474.439 279.57L477.499 275.92C479.339 277.58 481.169 278.42 482.989 278.42C484.189 278.42 485.139 278.13 485.819 277.56C486.499 276.99 486.839 276.19 486.839 275.16C486.839 274.2 486.469 273.44 485.719 272.87C484.969 272.31 483.989 272.03 482.759 272.03C481.529 272.03 480.249 272.32 478.919 272.89L475.989 270.95L476.649 259.61H490.779V264.04H480.989L480.719 268.02C481.779 267.75 482.779 267.62 483.739 267.62C486.129 267.62 488.069 268.24 489.559 269.46C491.049 270.69 491.789 272.55 491.789 275.05C491.789 277.55 490.989 279.41 489.409 280.85C487.819 282.28 485.699 283 483.049 283V283.02ZM459.289 277.71C460.009 278.36 460.989 278.68 462.219 278.68C463.449 278.68 464.409 278.36 465.109 277.73C465.809 277.1 466.159 276.27 466.159 275.23C466.159 274.19 465.799 273.44 465.079 272.82C464.349 272.2 463.379 271.88 462.149 271.88C460.919 271.88 459.959 272.18 459.249 272.8C458.549 273.41 458.199 274.24 458.199 275.26C458.199 276.28 458.559 277.06 459.289 277.71ZM462.409 283.02C459.629 283.02 457.409 282.2 455.769 280.56C453.949 278.74 453.039 275.82 453.039 271.79C453.039 268.06 453.899 265.04 455.599 262.72C457.309 260.4 459.819 259.24 463.129 259.24C465.799 259.24 468.199 260.08 470.329 261.77L467.669 265.68C466.839 265.04 466.079 264.58 465.379 264.28C464.689 263.98 463.889 263.84 462.969 263.84C461.609 263.84 460.539 264.32 459.769 265.3C458.989 266.28 458.519 267.56 458.339 269.16C459.829 268.17 461.419 267.68 463.109 267.68C465.479 267.68 467.409 268.32 468.929 269.62C470.439 270.91 471.199 272.73 471.199 275.08C471.199 277.43 470.369 279.31 468.699 280.8C467.039 282.29 464.939 283.03 462.419 283.03L462.409 283.02Z" fill="white"/><path fill-rule="evenodd" clip-rule="evenodd" d="M466.509 168.04L480.249 198.99L469.159 203.97L460.679 184.56L454.949 187L461.619 201.5L451.409 206.19L444.689 191.49L438.679 194.11L447.729 213.34L436.559 218.26L422.869 187.52L466.509 168.04Z" fill="white"/><path fill-rule="evenodd" clip-rule="evenodd" d="M430.43 119.09L438.51 128.82L429.29 154.43L447.2 139.49L455.33 149.35L418.45 179.51L410.48 169.5L419.66 144.43L401.53 159.05L393.59 149.12L430.43 119.09Z" fill="white"/><path fill-rule="evenodd" clip-rule="evenodd" d="M382.33 81.5498L398.63 93.0698C408.41 99.9798 411.08 108.79 405.05 117.66C401.57 122.78 396.1 127.49 388.64 125.09L388.44 144.18L376.87 135.94L377.11 119.98L373.24 116.99L365.33 128.01L354.85 120.65L382.34 81.5598L382.33 81.5498ZM384.45 111.46C387.77 113.72 390.54 115.66 393.65 111.48C396.57 107.56 394.49 104.58 391.12 102.39L385.38 98.6598L379.13 107.84L384.44 111.46H384.45Z" fill="white"/><path fill-rule="evenodd" clip-rule="evenodd" d="M332.201 112.68C319.091 108.31 316.241 98.79 321.021 85.79L330.341 60.46L342.481 64.69L333.001 89.81C331.231 94.49 330.871 98.78 335.641 100.65C340.771 102.66 343.851 100.61 345.531 95.89L354.951 69.36L367.091 73.59L357.321 100.78C353.231 112.18 344.921 116.9 332.201 112.66V112.68Z" fill="white"/><path fill-rule="evenodd" clip-rule="evenodd" d="M288.54 102.93C274.09 102.17 265.87 91.6698 266.6 77.8298C267.33 63.9798 276.05 53.1698 290.53 53.9298C304.97 54.6898 313.37 66.1298 311.89 79.9698C310.43 93.6598 302.94 103.68 288.54 102.92V102.93ZM288.65 90.8198C293.92 91.2098 298.51 85.6198 298.83 79.4198C299.16 73.1698 297.23 66.5998 289.9 66.1898C282.81 65.7898 280.11 72.3498 279.78 78.6398C279.44 84.9898 282.41 90.3598 288.65 90.8198Z" fill="white"/><path fill-rule="evenodd" clip-rule="evenodd" d="M213.18 61.6898L235.95 57.1398C245.22 55.2898 252.19 58.7998 253.45 67.4298C253.99 71.0998 254.23 74.6898 249.65 78.7098C254.76 79.7298 257.87 82.7198 258.53 88.7298C259.5 97.6698 254.39 102.39 244.03 104.38L222.35 108.54L213.18 61.6998V61.6898ZM236.59 76.3398C239.53 75.7898 242.47 74.6898 241.96 71.7898C241.43 68.7698 238.37 68.7998 235.39 69.4098L227.69 70.9898L229.1 77.7498L236.59 76.3498V76.3398ZM240.86 92.9498C244.17 92.3398 246 91.7198 245.47 88.3198C244.95 84.9698 242.28 85.2598 238.96 85.9098L231.04 87.4698L232.38 94.5198L240.86 92.9498Z" fill="white"/><path fill-rule="evenodd" clip-rule="evenodd" d="M181.821 87.6498L172.281 92.4098L167.061 81.4298L197.711 67.0498L202.871 77.8798L192.921 82.6198L208.271 114.91L196.741 120.09L181.821 87.6498Z" fill="white"/><path fill-rule="evenodd" clip-rule="evenodd" d="M167.791 139.72C162.121 143.74 156.441 144.77 151.531 144.81L149.831 133.31C152.511 133.18 156.091 132.53 158.611 131.35C161.981 129.76 165.741 127.03 164.951 124.71C164.251 122.68 160.331 123.39 158.501 123.89C157.301 124.22 155.601 124.84 153.361 125.34C145.401 127.1 138.601 126.53 134.061 120.09C129.291 113.31 132.871 105.04 140.001 99.3598C144.471 95.8098 149.041 93.9798 156.281 93.5698L158.581 104.87C154.831 105 151.331 105.92 148.841 107.5C147.121 108.59 143.841 111.1 144.971 113.02C146.181 115.07 152.991 112.79 155.151 112.06L156.731 111.52C163.171 109.34 171.891 110.43 175.851 117.56C180.981 126.78 175.801 134.05 167.781 139.73L167.791 139.72Z" fill="white"/><path fill-rule="evenodd" clip-rule="evenodd" d="M98.1504 143.07L108.21 130.76L154.33 149.54L146.07 159.58L141.76 157.77L132.06 169.82L134.97 173.44L127.15 183.66L98.1504 143.06V143.07ZM131.25 153.46L114.24 145.58L125.32 160.59L131.25 153.45V153.46Z" fill="white"/><path fill-rule="evenodd" clip-rule="evenodd" d="M66.8203 202.46L80.0003 171.27L91.2103 175.96L82.8603 195.41L88.5503 197.93L94.5703 183.15L104.98 187.39L98.8403 202.35L104.87 204.94L112.71 185.19L123.94 189.97L110.87 220.98L66.8203 202.46Z" fill="white"/><path fill-rule="evenodd" clip-rule="evenodd" d="M435.151 419.29C431.321 419.29 428.211 416.18 428.211 412.35C428.211 408.52 431.321 405.41 435.151 405.41C438.981 405.41 442.091 408.51 442.091 412.35C442.091 416.19 438.991 419.29 435.151 419.29Z" fill="white"/><path fill-rule="evenodd" clip-rule="evenodd" d="M472.46 362.68C468.63 362.68 465.52 359.57 465.52 355.74C465.52 351.91 468.62 348.8 472.46 348.8C476.3 348.8 479.4 351.91 479.4 355.74C479.4 359.57 476.29 362.68 472.46 362.68Z" fill="white"/><path fill-rule="evenodd" clip-rule="evenodd" d="M109.48 418.9C101.29 407.65 105.97 396.03 115.48 388.52C124.7 381.24 138.13 381 145.62 391.47C154 403.19 150.21 415.01 140.02 422.66C129.79 430.34 116.79 428.94 109.48 418.9ZM118.76 412.29C122.16 416.68 127.85 416.67 132.75 413.07C137.69 409.44 140.46 403.45 136.8 398.63C132.78 393.34 127.08 394.95 122.11 398.6C117.13 402.26 115.42 407.96 118.76 412.28V412.29Z" fill="white"/><path fill-rule="evenodd" clip-rule="evenodd" d="M75.2198 269.62C75.9398 270.25 76.9098 270.56 78.1198 270.56C79.3298 270.56 80.2998 270.24 80.9898 269.6C81.6898 268.96 82.0398 268.13 82.0398 267.11C82.0398 266.09 81.6798 265.25 80.9598 264.59C80.2398 263.94 79.2598 263.61 78.0198 263.61C76.7798 263.61 75.8498 263.93 75.1598 264.57C74.4798 265.21 74.1298 266.07 74.1298 267.13C74.1298 268.19 74.4898 268.98 75.2098 269.61L75.2198 269.62ZM77.1798 282.93C74.3498 282.93 71.8498 282.03 69.6798 280.22L72.3198 276.4C73.9498 277.7 75.6098 278.36 77.3098 278.36C78.6598 278.36 79.7198 277.89 80.4998 276.96C81.2898 276.03 81.7598 274.76 81.9398 273.17C80.7198 274.21 79.1698 274.74 77.3098 274.74C74.8098 274.74 72.8198 274.08 71.3498 272.77C69.8798 271.45 69.1498 269.63 69.1498 267.31C69.1498 264.99 69.9598 263.1 71.5798 261.58C73.1998 260.07 75.2898 259.31 77.8598 259.31C79.3598 259.31 80.6098 259.51 81.6298 259.9C82.6398 260.29 83.5798 260.92 84.4498 261.79C86.2598 263.6 87.1598 266.49 87.1598 270.47C87.1598 274.45 86.2898 277.28 84.5498 279.54C82.8098 281.8 80.3498 282.93 77.1698 282.93H77.1798ZM59.3698 282.54V264.63L55.3898 265.61L54.3398 261.5L60.8998 259.54H64.3298V282.54H59.3698Z" fill="white"/><path fill-rule="evenodd" clip-rule="evenodd" d="M189.969 359.3C192.129 358.32 194.159 357.03 195.929 355.41C200.489 351.23 205.009 347.54 209.699 344.89C214.779 342.01 220.039 340.34 225.699 340.48C230.519 340.6 234.959 341.71 239.069 343.55C243.079 345.35 246.739 347.82 250.109 350.73C253.719 353.86 257.299 356.53 261.019 358.38C264.469 360.1 268.059 361.1 271.929 361.06C275.179 361.02 278.479 360.24 281.689 358.7C284.889 357.16 287.989 354.86 290.859 351.81C294.319 348.11 298.249 345.33 302.509 343.49C306.839 341.62 311.539 340.7 316.499 340.74C321.219 340.77 325.799 341.58 330.099 343.33C334.159 344.98 337.979 347.47 341.449 350.92C344.469 353.93 347.629 356.71 351.229 358.69C351.679 358.94 352.139 359.18 352.619 359.4V330.67H189.989V359.3H189.969ZM155.529 346.68L155.949 347.1V347.12C160.359 351.53 170.269 361.45 179.949 361.47H180.049V320.75H362.529V361.84C362.759 361.84 362.989 361.85 363.229 361.86C370.329 361.95 377.339 355.56 382.889 350.5C386.349 347.34 389.359 344.6 392.389 343.31L396.269 352.42C394.809 353.04 392.369 355.26 389.559 357.82C382.749 364.04 374.139 371.88 363.119 371.74C356.589 371.66 351.179 369.98 346.459 367.36C341.899 364.84 338.059 361.5 334.479 357.93C331.999 355.46 329.279 353.69 326.389 352.51C323.239 351.23 319.889 350.64 316.429 350.61C312.899 350.58 309.539 351.24 306.429 352.58C303.359 353.9 300.549 355.89 298.069 358.54C294.319 362.55 290.229 365.56 285.999 367.61C281.479 369.79 276.769 370.89 272.059 370.94H272.039C266.429 371.01 261.379 369.63 256.609 367.26C252.099 365.02 247.859 361.87 243.639 358.22C240.959 355.9 238.099 353.96 235.049 352.59C232.079 351.26 228.899 350.46 225.479 350.37C221.789 350.27 218.199 351.46 214.599 353.49C210.619 355.74 206.659 358.99 202.609 362.69C199.479 365.56 195.899 367.7 192.159 369.12C188.219 370.62 184.039 371.36 179.959 371.35C166.169 371.32 154.259 359.41 148.959 354.1H148.949L148.529 353.69L155.539 346.67L155.529 346.68Z" fill="#1B3557"/><path fill-rule="evenodd" clip-rule="evenodd" d="M91.66 91.6598C137.78 45.5398 201.51 17.0098 271.89 17.0098C342.27 17.0098 406 45.5398 452.12 91.6598C498.25 137.79 526.78 201.51 526.78 271.89C526.78 342.27 498.25 406 452.12 452.12C406 498.25 342.27 526.78 271.89 526.78C201.51 526.78 137.78 498.25 91.66 452.12C45.53 406 17 342.27 17 271.89C17 201.51 45.53 137.78 91.66 91.6598ZM509.11 230.82L426.02 260.36C426.31 264.19 426.45 268.05 426.45 271.95C426.45 275.06 426.36 278.14 426.18 281.21L509.4 311.28C511.51 298.46 512.61 285.3 512.61 271.89C512.61 258.48 511.41 244.17 509.12 230.82H509.11ZM120.44 296.1L37.38 326.44C47.71 371.01 70.41 410.83 101.67 442.1C145.23 485.66 205.41 512.6 271.88 512.6C338.35 512.6 398.53 485.66 442.09 442.1C473.62 410.57 496.44 370.34 506.64 325.32L424.63 295.68C419.52 328.69 403.93 358.24 381.36 380.81C353.5 408.67 315.01 425.9 272.5 425.9C229.99 425.9 191.5 408.67 163.64 380.81C141.16 358.33 125.6 328.94 120.43 296.1H120.44ZM118.99 260.36L34.84 229.87C32.43 243.51 31.18 257.55 31.18 271.89C31.18 286.23 32.35 299.25 34.58 312.43L118.86 281.64C118.66 278.44 118.56 275.21 118.56 271.96C118.56 268.06 118.71 264.19 118.99 260.36ZM37.73 215.89L120.74 245.97C126.2 213.87 141.59 185.16 163.65 163.1C191.51 135.24 230 118.01 272.51 118.01C315.02 118.01 353.51 135.24 381.37 163.1C403.43 185.15 418.82 213.87 424.28 245.98L506.28 216.82C495.9 172.46 473.25 132.82 442.11 101.68C398.55 58.1198 338.37 31.1798 271.9 31.1798C205.43 31.1798 145.25 58.1198 101.69 101.68C70.76 132.6 48.22 171.91 37.74 215.89H37.73ZM205.47 394.64C225.37 405.54 248.22 411.74 272.51 411.74C296.8 411.74 318.17 405.94 337.61 395.69C332.91 390.92 329.27 388.23 326.15 386.75C322.72 385.11 319.7 384.94 316.4 384.92C313.04 384.89 309.88 385.56 306.91 386.84C303.76 388.2 300.82 390.26 298.11 392.92C293.74 397.2 289.61 400.21 285.43 402.19C281.07 404.26 276.71 405.19 272.04 405.24H272.02C266.61 405.3 261.44 404.12 256.63 401.91C251.66 399.63 247.1 396.28 243.09 392.12C240.84 389.78 238.19 387.98 235.26 386.74C232.24 385.45 228.92 384.76 225.45 384.67C221.73 384.57 218.22 385.47 214.76 387.37C211.73 389.03 208.67 391.46 205.48 394.65L205.47 394.64ZM272.51 132.18C233.91 132.18 198.97 147.83 173.67 173.12C148.38 198.42 132.73 233.36 132.73 271.96C132.73 310.56 148.37 345.5 173.67 370.8C180.53 377.66 188.09 383.8 196.25 389.12C200.75 384.33 205.17 380.69 209.76 378.18C214.86 375.39 220.08 374.07 225.69 374.21C230.52 374.34 235.14 375.31 239.35 377.11C243.56 378.89 247.37 381.49 250.62 384.86C253.75 388.11 257.23 390.69 260.96 392.4C264.4 393.98 268.08 394.83 271.91 394.79C275.06 394.75 278 394.12 280.95 392.72C284.07 391.24 287.27 388.88 290.77 385.45C294.43 381.87 298.43 379.07 302.77 377.2C307.01 375.37 311.57 374.42 316.48 374.46C321.09 374.5 325.36 374.75 330.65 377.27C335.22 379.45 340.38 383.31 346.94 390.28C355.8 384.7 363.98 378.16 371.34 370.79C396.64 345.5 412.28 310.55 412.28 271.95C412.28 233.35 396.64 198.41 371.34 173.11C346.05 147.82 311.1 132.17 272.5 132.17L272.51 132.18Z" fill="white"/><path fill-rule="evenodd" clip-rule="evenodd" d="M422.87 187.52L466.5 168.04L480.25 198.99L469.16 203.97L460.68 184.56L454.95 187L461.61 201.5L451.4 206.19L444.68 191.49L438.67 194.11L447.72 213.34L436.56 218.27L422.87 187.53V187.52ZM288.54 102.93C274.09 102.17 265.87 91.6702 266.6 77.8302C267.33 63.9802 276.05 53.1702 290.53 53.9302C304.97 54.6902 313.37 66.1302 311.89 79.9702C310.43 93.6602 302.94 103.68 288.54 102.92V102.93ZM393.58 149.12L430.42 119.09L438.5 128.82L429.28 154.42L447.19 139.48L455.33 149.34L418.45 179.5L410.48 169.49L419.66 144.42L401.52 159.04L393.58 149.1V149.12ZM354.84 120.65L382.33 81.5602L398.63 93.0802C408.41 99.9902 411.08 108.8 405.05 117.67C401.57 122.79 396.1 127.51 388.64 125.1L388.44 144.19L376.87 135.95L377.11 119.99L373.24 117L365.33 128.02L354.85 120.66L354.84 120.65ZM357.31 100.81C353.22 112.21 344.91 116.93 332.19 112.69C319.08 108.32 316.23 98.8002 321.01 85.8002L330.33 60.4702L342.47 64.7002L332.99 89.8202C331.22 94.5002 330.86 98.7902 335.63 100.66C340.76 102.67 343.84 100.62 345.52 95.9002L354.94 69.3702L367.08 73.6002L357.31 100.79V100.81ZM222.35 108.55L213.18 61.7002L235.95 57.1502C245.22 55.3002 252.19 58.8102 253.45 67.4402C253.99 71.1102 254.23 74.7002 249.65 78.7202C254.76 79.7402 257.87 82.7302 258.53 88.7402C259.5 97.6802 254.39 102.4 244.03 104.39L222.35 108.56V108.55ZM196.74 120.1L181.82 87.6702L172.28 92.4202L167.06 81.4402L197.71 67.0702L202.87 77.9002L192.92 82.6302L208.26 114.93L196.73 120.1H196.74ZM120.75 245.99C126.21 213.89 141.6 185.18 163.66 163.12C191.52 135.26 230.01 118.03 272.52 118.03C315.03 118.03 353.52 135.26 381.38 163.12C403.44 185.17 418.83 213.89 424.29 246L506.29 216.84C495.91 172.48 473.26 132.84 442.12 101.7C398.56 58.1402 338.38 31.2002 271.91 31.2002C205.44 31.2002 145.26 58.1402 101.7 101.7C70.77 132.62 48.23 171.93 37.75 215.91L120.76 245.99H120.75ZM112.71 185.21L123.94 189.99L110.87 221L66.82 202.48L80 171.29L91.22 175.98L82.86 195.44L88.56 197.95L94.58 183.17L104.99 187.41L98.85 202.37L104.87 204.96L112.71 185.21ZM108.21 130.79L154.33 149.57L146.07 159.61L141.76 157.8L132.06 169.85L134.97 173.47L127.15 183.69L98.15 143.09L108.21 130.78V130.79ZM134.06 120.11C129.29 113.33 132.87 105.06 140 99.3802C144.47 95.8302 149.04 94.0002 156.28 93.5902L158.58 104.89C154.83 105.02 151.33 105.94 148.84 107.52C147.12 108.61 143.84 111.12 144.97 113.03C146.18 115.08 152.99 112.8 155.15 112.07L156.73 111.53C163.17 109.35 171.89 110.44 175.85 117.57C180.98 126.79 175.8 134.06 167.78 139.74C162.11 143.76 156.43 144.79 151.52 144.83L149.82 133.33C152.5 133.2 156.08 132.55 158.6 131.37C161.97 129.78 165.73 127.05 164.94 124.73C164.24 122.7 160.32 123.41 158.49 123.91C157.29 124.24 155.59 124.86 153.35 125.36C145.39 127.12 138.59 126.55 134.05 120.11H134.06Z" fill="#1B3557"/><path fill-rule="evenodd" clip-rule="evenodd" d="M428.211 412.35C428.211 408.52 431.321 405.41 435.151 405.41C438.981 405.41 442.091 408.51 442.091 412.35C442.091 416.19 438.991 419.29 435.151 419.29C431.311 419.29 428.211 416.18 428.211 412.35ZM465.521 355.74C465.521 351.91 468.621 348.8 472.461 348.8C476.301 348.8 479.401 351.91 479.401 355.74C479.401 359.57 476.291 362.68 472.461 362.68C468.631 362.68 465.521 359.57 465.521 355.74ZM316.251 487.35C305.961 490.34 293.321 485.32 289.981 470.85C286.691 456.58 292.791 445.76 306.061 442.94C312.521 441.57 317.241 442.47 321.411 444.25L317.761 454.69C314.851 453.52 311.121 453.26 308.621 453.91C301.351 455.83 300.641 463.96 301.451 467.31C302.501 471.71 305.491 477.69 312.441 476.21C314.151 475.85 315.521 475.66 316.291 475.23L315.151 469.75L310.231 470.57L308.461 460.5L324.821 457.58L328.941 479.96C325.201 483.55 322.551 485.51 316.261 487.34L316.251 487.35ZM259.691 491.19C246.511 490.61 241.761 483.14 242.241 473.44L243.631 445.78L255.221 446.42L253.871 471.69C253.611 476.61 254.611 479.34 259.991 479.74C264.481 480.08 266.561 477.22 266.771 473.01L268.051 447.04L279.761 447.38L278.151 473.2C277.431 484.75 272.261 491.71 259.691 491.16V491.19ZM202.301 480.12C189.531 474.59 187.661 462.2 192.051 450.91C196.301 439.96 207.751 432.93 219.521 438.15C232.691 443.99 235.421 456.1 230.521 467.87C225.601 479.67 213.701 485.07 202.301 480.13V480.12ZM422.701 360.7C425.541 356.32 427.521 354.2 432.291 351.49L437.521 361.73C435.981 362.74 434.941 363.29 433.131 365.72C430.531 369.21 430.741 377.34 436.961 380.66C440.771 382.7 446.501 384.28 450.991 379.16C453.311 376.5 453.601 372.56 453.671 371.49H464.921C465.101 375.59 464.151 379.88 461.821 383.85C456.971 392.11 442.931 400.94 428.921 389.49C417.351 380.03 418.231 367.61 422.711 360.69L422.701 360.7ZM376.531 413.4L399.951 392.64L407.441 401.05L392.671 414.21L398.071 420.26L409.331 410.45L416.781 418.82L405.441 428.62L414.531 438.82L405.751 446.5L376.531 413.41V413.4ZM327.641 439.01L337.901 434.26L344.661 449.06L356.431 443.59L349.721 429.17L360.361 424.09L378.711 464.34L368.021 469.38L360.721 453.61L349.011 459.07L356.191 474.41L345.271 479.09L327.631 439.01H327.641ZM138.701 446.51L162.731 409.41L178.371 419.58C187.551 425.55 190.091 433.49 184.971 442.39C181.981 447.59 176.641 450.73 169.881 449.51L170.411 466.73L159.571 459.85L159.391 445L155.501 442.34L148.721 452.9L138.681 446.51H138.701ZM109.481 418.9C101.291 407.65 105.971 396.03 115.481 388.52C124.701 381.24 138.131 381 145.621 391.47C154.001 403.19 150.211 415.01 140.021 422.66C129.791 430.34 116.791 428.94 109.481 418.9ZM70.3206 359.45L109.541 338.5L119.831 357.71C122.871 363.37 123.871 370.97 115.731 375.48C109.621 378.87 106.891 376.77 104.411 374.64C105.061 380.15 102.751 383.61 98.6306 385.8C91.2506 389.73 85.0306 385.61 81.6906 379.66L70.3206 359.43V359.45ZM120.451 296.11L37.3906 326.45C47.7206 371.02 70.4206 410.84 101.681 442.11C145.241 485.67 205.421 512.61 271.891 512.61C338.361 512.61 398.541 485.67 442.101 442.11C473.631 410.58 496.451 370.35 506.651 325.33L424.641 295.69C419.531 328.7 403.941 358.25 381.371 380.82C353.511 408.68 315.021 425.91 272.511 425.91C230.001 425.91 191.511 408.68 163.651 380.82C141.171 358.34 125.611 328.95 120.441 296.11H120.451Z" fill="#1B3557"/><path fill-rule="evenodd" clip-rule="evenodd" d="M114.25 145.59L125.32 160.6L131.25 153.47L114.25 145.59Z" fill="#1B3557"/><path fill-rule="evenodd" clip-rule="evenodd" d="M227.68 70.9801L229.09 77.7401L236.58 76.3401C239.52 75.7901 242.46 74.6901 241.95 71.7901C241.42 68.7701 238.36 68.8001 235.38 69.4101L227.68 70.9901V70.9801Z" fill="#1B3557"/><path fill-rule="evenodd" clip-rule="evenodd" d="M238.959 85.9101L231.039 87.4701L232.379 94.5201L240.859 92.9501C244.169 92.3401 245.999 91.7201 245.469 88.3201C244.949 84.9701 242.279 85.2601 238.959 85.9101Z" fill="#1B3557"/><path fill-rule="evenodd" clip-rule="evenodd" d="M279.78 78.63C279.44 84.98 282.41 90.36 288.65 90.81C293.92 91.2 298.51 85.61 298.83 79.41C299.16 73.16 297.23 66.59 289.9 66.18C282.81 65.78 280.11 72.34 279.78 78.63Z" fill="#1B3557"/><path fill-rule="evenodd" clip-rule="evenodd" d="M385.391 98.6699L379.141 107.85L384.451 111.47C387.771 113.73 390.541 115.67 393.651 111.49C396.571 107.57 394.491 104.59 391.121 102.4L385.381 98.6699H385.391Z" fill="#1B3557"/><path fill-rule="evenodd" clip-rule="evenodd" d="M95.1602 367.94L91.4501 361.59L85.9102 364.45L89.9402 371.74C91.5002 374.56 92.4502 375.83 95.1502 374.15C97.1502 372.9 96.7902 370.74 95.1502 367.94H95.1602Z" fill="#1B3557"/><path fill-rule="evenodd" clip-rule="evenodd" d="M99.6504 357.12L103.36 363.89C104.38 365.75 105.77 368.14 108.81 366.37C110.95 365.12 110.57 363.47 109.13 360.94L105.18 354L99.6504 357.12Z" fill="#1B3557"/><path fill-rule="evenodd" clip-rule="evenodd" d="M136.801 398.64C132.781 393.35 127.081 394.96 122.111 398.61C117.131 402.27 115.421 407.97 118.761 412.29C122.161 416.68 127.851 416.67 132.751 413.07C137.691 409.44 140.461 403.45 136.801 398.63V398.64Z" fill="#1B3557"/><path fill-rule="evenodd" clip-rule="evenodd" d="M166.479 424.85L160.869 433.84L165.419 436.86C168.629 438.98 171.819 440.37 174.439 436.5C177.219 432.39 174.579 429.69 171.279 427.72L166.489 424.85H166.479Z" fill="#1B3557"/><path fill-rule="evenodd" clip-rule="evenodd" d="M215.549 448.79C209.409 446.27 205.309 450.56 202.879 456.23C200.449 461.91 201.869 467.69 206.939 469.72C212.099 471.78 216.989 468.88 219.389 463.29C221.809 457.65 221.149 451.09 215.549 448.79Z" fill="#1B3557"/><path fill-rule="evenodd" clip-rule="evenodd" d="M69.6697 280.22L72.3097 276.4C73.9397 277.7 75.5997 278.36 77.2997 278.36C78.6497 278.36 79.7097 277.89 80.4897 276.96C81.2797 276.03 81.7497 274.76 81.9297 273.17C80.7097 274.21 79.1597 274.74 77.2997 274.74C74.7997 274.74 72.8097 274.08 71.3397 272.77C69.8697 271.45 69.1397 269.63 69.1397 267.31C69.1397 264.99 69.9497 263.1 71.5697 261.58C73.1897 260.07 75.2797 259.31 77.8497 259.31C79.3497 259.31 80.5997 259.51 81.6197 259.9C82.6297 260.29 83.5697 260.92 84.4397 261.79C86.2497 263.6 87.1497 266.49 87.1497 270.47C87.1497 274.45 86.2797 277.28 84.5397 279.54C82.7997 281.8 80.3397 282.93 77.1597 282.93C74.3297 282.93 71.8297 282.03 69.6597 280.22H69.6697ZM34.5797 312.43L118.86 281.64C118.66 278.44 118.56 275.21 118.56 271.96C118.56 268.06 118.71 264.19 118.99 260.36L34.8397 229.87C32.4297 243.51 31.1797 257.55 31.1797 271.89C31.1797 286.23 32.3497 299.25 34.5797 312.43ZM59.3597 282.53V264.62L55.3797 265.6L54.3297 261.49L60.8897 259.53H64.3197V282.53H59.3597Z" fill="#BE1622"/><path fill-rule="evenodd" clip-rule="evenodd" d="M474.439 279.57L477.499 275.92C479.339 277.58 481.169 278.42 482.989 278.42C484.189 278.42 485.139 278.13 485.819 277.56C486.499 276.99 486.839 276.19 486.839 275.16C486.839 274.2 486.469 273.44 485.719 272.87C484.969 272.31 483.989 272.03 482.759 272.03C481.529 272.03 480.249 272.32 478.919 272.89L475.989 270.95L476.649 259.61H490.779V264.04H480.989L480.719 268.02C481.779 267.75 482.779 267.62 483.739 267.62C486.129 267.62 488.069 268.24 489.559 269.46C491.049 270.69 491.789 272.55 491.789 275.05C491.789 277.55 490.989 279.41 489.409 280.85C487.819 282.28 485.699 283 483.049 283C479.719 283 476.849 281.85 474.439 279.55V279.57ZM455.779 280.56C453.959 278.74 453.049 275.82 453.049 271.79C453.049 268.06 453.909 265.04 455.609 262.72C457.319 260.4 459.829 259.24 463.139 259.24C465.809 259.24 468.209 260.08 470.339 261.77L467.679 265.68C466.849 265.04 466.089 264.58 465.389 264.28C464.699 263.98 463.899 263.84 462.979 263.84C461.619 263.84 460.549 264.32 459.779 265.3C458.999 266.28 458.529 267.56 458.349 269.16C459.839 268.17 461.429 267.68 463.119 267.68C465.489 267.68 467.419 268.32 468.939 269.62C470.449 270.91 471.209 272.73 471.209 275.08C471.209 277.43 470.379 279.31 468.709 280.8C467.049 282.29 464.949 283.03 462.429 283.03C459.649 283.03 457.429 282.21 455.789 280.57L455.779 280.56ZM426.459 271.97C426.459 275.08 426.369 278.16 426.189 281.23L509.409 311.3C511.519 298.48 512.619 285.32 512.619 271.91C512.619 258.5 511.419 244.19 509.129 230.84L426.039 260.38C426.329 264.21 426.469 268.07 426.469 271.97H426.459Z" fill="#BE1622"/><path fill-rule="evenodd" clip-rule="evenodd" d="M80.9909 269.6C81.6909 268.96 82.0409 268.13 82.0409 267.11C82.0409 266.09 81.6809 265.25 80.9609 264.59C80.2409 263.94 79.2609 263.61 78.0209 263.61C76.7809 263.61 75.8509 263.93 75.1609 264.57C74.4809 265.21 74.1309 266.07 74.1309 267.13C74.1309 268.19 74.4909 268.98 75.2109 269.61C75.9309 270.24 76.9009 270.55 78.1109 270.55C79.3209 270.55 80.2909 270.23 80.9809 269.59L80.9909 269.6Z" fill="#BE1622"/><path fill-rule="evenodd" clip-rule="evenodd" d="M459.261 272.8C458.561 273.41 458.211 274.24 458.211 275.26C458.211 276.28 458.571 277.06 459.301 277.71C460.021 278.36 461.001 278.68 462.231 278.68C463.461 278.68 464.421 278.36 465.121 277.73C465.821 277.1 466.171 276.27 466.171 275.23C466.171 274.19 465.811 273.44 465.091 272.82C464.361 272.2 463.391 271.88 462.161 271.88C460.931 271.88 459.971 272.18 459.261 272.8Z" fill="#BE1622"/><path fill-rule="evenodd" clip-rule="evenodd" d="M243.62 358.22C240.94 355.9 238.08 353.96 235.03 352.59C232.06 351.26 228.88 350.46 225.46 350.37C221.77 350.27 218.18 351.46 214.58 353.49C210.6 355.74 206.64 358.99 202.59 362.69C199.46 365.56 195.88 367.7 192.14 369.12C188.2 370.62 184.02 371.36 179.94 371.35C177.68 371.35 175.47 371.02 173.33 370.46C173.44 370.58 173.55 370.69 173.67 370.8C180.53 377.66 188.09 383.8 196.25 389.12C200.75 384.33 205.17 380.69 209.76 378.18C214.86 375.39 220.08 374.07 225.69 374.21C230.52 374.34 235.14 375.31 239.35 377.11C243.56 378.89 247.37 381.49 250.62 384.86C253.75 388.11 257.23 390.69 260.96 392.4C264.4 393.98 268.08 394.83 271.91 394.79C275.06 394.75 278 394.12 280.95 392.72C284.07 391.24 287.27 388.88 290.77 385.45C294.43 381.87 298.43 379.07 302.77 377.2C307.01 375.37 311.57 374.42 316.48 374.46C321.09 374.5 325.36 374.75 330.65 377.27C335.22 379.45 340.38 383.31 346.94 390.28C355.8 384.7 363.98 378.16 371.34 370.79C371.57 370.56 371.8 370.33 372.03 370.1C369.24 371.15 366.27 371.77 363.1 371.73C356.57 371.65 351.16 369.97 346.44 367.35C341.88 364.83 338.04 361.49 334.46 357.92C331.98 355.45 329.26 353.68 326.37 352.5C323.22 351.22 319.87 350.63 316.41 350.6C312.88 350.57 309.52 351.23 306.41 352.57C303.34 353.89 300.53 355.88 298.05 358.53C294.3 362.54 290.21 365.55 285.98 367.6C281.46 369.78 276.75 370.88 272.04 370.93H272.02C266.41 371 261.36 369.62 256.59 367.25C252.08 365.01 247.84 361.86 243.62 358.21V358.22Z" fill="#487C9E"/><path fill-rule="evenodd" clip-rule="evenodd" d="M235.26 386.74C232.24 385.45 228.92 384.76 225.45 384.67C221.73 384.57 218.22 385.47 214.76 387.37C211.73 389.03 208.67 391.46 205.48 394.65C225.38 405.55 248.23 411.75 272.52 411.75C296.81 411.75 318.18 405.95 337.62 395.7C332.92 390.93 329.28 388.24 326.16 386.76C322.73 385.12 319.71 384.95 316.41 384.93C313.05 384.9 309.89 385.57 306.92 386.85C303.77 388.21 300.83 390.27 298.12 392.93C293.75 397.21 289.62 400.22 285.44 402.2C281.08 404.27 276.72 405.2 272.05 405.25H272.03C266.62 405.31 261.45 404.13 256.64 401.92C251.67 399.64 247.11 396.29 243.1 392.13C240.85 389.79 238.2 387.99 235.27 386.75L235.26 386.74Z" fill="#487C9E"/><path fill-rule="evenodd" clip-rule="evenodd" d="M209.69 344.89C214.77 342.01 220.03 340.34 225.69 340.48C230.51 340.6 234.95 341.71 239.06 343.55C243.07 345.35 246.73 347.82 250.1 350.73C253.71 353.86 257.29 356.53 261.01 358.38C264.46 360.1 268.05 361.1 271.92 361.06C275.17 361.02 278.47 360.24 281.68 358.7C284.88 357.16 287.98 354.86 290.85 351.81C294.31 348.11 298.24 345.33 302.5 343.49C306.83 341.62 311.53 340.7 316.49 340.74C321.21 340.77 325.79 341.58 330.09 343.33C334.15 344.98 337.97 347.47 341.44 350.92C344.46 353.93 347.62 356.71 351.22 358.69C351.67 358.94 352.13 359.18 352.61 359.4V330.67H189.98V359.3C192.14 358.32 194.17 357.03 195.94 355.41C200.5 351.23 205.02 347.54 209.71 344.89H209.69Z" fill="white"/><path fill-rule="evenodd" clip-rule="evenodd" d="M326.291 217.41V222.19H332.761L332.571 217.72L342.451 217.29L347.071 322.73L337.191 323.16L333.201 232.07L209.251 232.13L205.861 322.84L195.971 322.49L199.911 217.43L209.791 217.77L209.621 222.25H216.631V217.41H226.511V222.24H233.071V217.41H242.951V222.23H249.801L249.791 217.41H259.681V222.23L282.961 222.21V217.41H292.841V222.21H299.691L299.681 217.41H309.571V222.2H316.411V217.41H326.291Z" fill="#1B3557"/><path fill-rule="evenodd" clip-rule="evenodd" d="M261.101 293.36H281.511V263.42C278.281 261.4 275.151 260.03 271.641 260.02C268.041 260.02 264.771 261.28 261.061 263.38L261.101 293.36Z" fill="#1B3557"/><path fill-rule="evenodd" clip-rule="evenodd" d="M333.199 232.07L209.259 232.13L205.939 320.75H337.089L333.199 232.07ZM261.099 293.36L261.059 263.38C264.769 261.28 268.039 260.01 271.639 260.02C275.149 260.02 278.279 261.4 281.509 263.42V293.36H261.099Z" fill="#487C9E"/><path fill-rule="evenodd" clip-rule="evenodd" d="M281.94 176.76C280.09 176.89 277.32 176.9 275.29 175.59V158.91C276.74 159.38 278.9 159.49 281.21 159.46C286.29 159.41 290.77 157.87 295.26 156.19C298.64 154.93 302.12 153.93 305.3 153.68C306.1 153.62 307.36 153.68 308.21 153.86C307.76 154.37 304.92 157.63 304.32 158.49C303.54 159.61 302.62 160.55 302.49 161.83C302.34 163.29 302.93 164.47 303.84 165.83C304.7 167.12 306.36 169.53 307.3 171.08C306.46 171.12 303.98 171.03 303.13 171.06C299.61 171.18 297.4 172.13 294.15 173.26C292.58 173.81 290.96 174.28 289.36 174.85C286.37 175.91 284.07 176.6 281.93 176.75L281.94 176.76ZM275.19 184.4C277.55 184.97 280.29 185.17 282.45 185.02C285.45 184.82 288.25 184.04 291.75 183C293.51 182.48 294.91 181.59 296.63 181C299.52 179.99 301.74 179.45 304.46 179.02C305.56 178.84 306.92 178.84 307.96 178.99C308.91 179.13 310.04 179.58 311.05 180.22C312.46 181.12 314.12 181.65 315.68 181.65C316.82 181.49 317.8 180.95 318.56 180.09C319.26 179.3 318.86 177.8 318.92 176.68C318.99 175.52 318.13 173.96 317.21 172.63C315.76 170.56 314.78 168.57 313.57 166.56C312.79 165.27 312.22 164 311.31 162.6C312.71 160.96 314.63 158.92 316.15 157.24L317.02 156.28C318.4 154.75 319.51 153.8 319.18 151.64C318.85 149.48 317.36 148.54 314.79 147.59C313.2 147 311.64 146.47 310.08 146.09C308.32 145.67 306.42 145.48 304.52 145.63C300.23 145.97 296.37 147.04 292.4 148.52C288.6 149.94 284.72 151.56 281.15 151.6C279.44 151.62 277.99 151.69 276.82 151.24C275.52 150.74 274.24 149.79 272.71 148.85C271.69 148.23 270.54 148.66 269.49 149.02C268.08 149.91 267.38 150.95 267.38 151.86L267.23 222.22H275.28L275.18 184.4H275.19Z" fill="#1B3557"/><path fill-rule="evenodd" clip-rule="evenodd" d="M275.289 175.59C277.319 176.89 280.089 176.89 281.939 176.76C284.079 176.61 286.379 175.93 289.369 174.86C290.969 174.29 292.589 173.82 294.159 173.27C297.409 172.14 299.619 171.18 303.139 171.07C303.979 171.04 306.469 171.13 307.299 171.09C306.359 169.54 304.709 167.13 303.839 165.84C302.929 164.48 302.339 163.3 302.489 161.84C302.619 160.56 303.539 159.62 304.319 158.5C304.909 157.64 307.749 154.38 308.209 153.87C307.359 153.69 306.089 153.62 305.299 153.69C302.109 153.94 298.639 154.94 295.259 156.2C290.769 157.88 286.289 159.41 281.209 159.47C278.899 159.49 276.739 159.39 275.289 158.92V175.6V175.59Z" fill="#BE1622"/><path fill-rule="evenodd" clip-rule="evenodd" d="M267.25 222.22L267.4 151.86C267.4 150.96 268.1 149.91 269.51 149.02C270.56 148.66 271.71 148.23 272.73 148.85C274.26 149.79 275.54 150.74 276.84 151.24C278.01 151.69 279.46 151.62 281.17 151.6C284.74 151.57 288.62 149.94 292.42 148.52C296.4 147.04 300.26 145.97 304.54 145.63C306.44 145.48 308.34 145.67 310.1 146.09C311.66 146.47 313.22 147 314.81 147.59C317.39 148.54 318.87 149.48 319.2 151.64C319.54 153.79 318.42 154.75 317.04 156.28L316.17 157.24C314.65 158.92 312.73 160.96 311.33 162.6C312.24 164 312.81 165.27 313.59 166.56C314.8 168.56 315.78 170.56 317.23 172.63C318.16 173.96 319.01 175.52 318.94 176.68C318.88 177.8 319.27 179.3 318.58 180.09C317.82 180.96 316.84 181.49 315.7 181.65C314.14 181.65 312.48 181.12 311.07 180.22C310.06 179.57 308.92 179.13 307.98 178.99C306.94 178.84 305.58 178.84 304.48 179.02C301.76 179.45 299.54 179.99 296.65 181C294.94 181.6 293.53 182.48 291.77 183C288.27 184.04 285.46 184.82 282.47 185.02C280.31 185.17 277.57 184.97 275.21 184.4L275.31 222.22H282.97V217.41H292.85V222.21H299.69V217.41H309.57V222.2H316.41V217.41H326.29V222.2H332.76L332.57 217.73L342.45 217.3L346.99 320.76H362.53V361.85L363.23 361.87C370.33 361.96 377.34 355.57 382.89 350.51C386.35 347.35 389.361 344.61 392.391 343.32L392.53 343.66C405.08 322.7 412.29 298.18 412.29 271.98C412.29 233.38 396.65 198.44 371.35 173.14C346.06 147.85 311.11 132.2 272.51 132.2C233.91 132.2 198.97 147.85 173.67 173.14C148.38 198.44 132.73 233.38 132.73 271.98C132.73 299.76 140.83 325.65 154.81 347.41L155.52 346.7L155.94 347.12V347.14C160.35 351.55 170.26 361.47 179.94 361.49H180.04V320.77H196.03L199.91 217.45L209.79 217.8L209.62 222.28H216.62V217.44H226.5V222.27H233.06V217.44H242.94V222.26H249.78V217.44H259.66V222.26H267.23L267.25 222.22Z" fill="#AAD7DB"/></g><defs><clipPath id="clip0_2480_6435"><rect width="543.79" height="543.79" fill="white"/></clipPath></defs></svg>